<?xml version="1.0" standalone="no"?>
<!DOCTYPE svg PUBLIC "-//W3C//DTD SVG 1.1//EN" "http://www.w3.org/Graphics/SVG/1.1/DTD/svg11.dtd" >
<svg xmlns="http://www.w3.org/2000/svg" xmlns:xlink="http://www.w3.org/1999/xlink" version="1.1">
<metadata></metadata>
<defs>
<font id="orangerie_personal_use_onlyRg" horiz-adv-x="1069" >
<font-face units-per-em="2048" ascent="1638" descent="-410" />
<missing-glyph horiz-adv-x="692" />
<glyph horiz-adv-x="0" />
<glyph unicode="&#xd;" horiz-adv-x="512" />
<glyph unicode=" "  horiz-adv-x="692" />
<glyph unicode="&#x09;" horiz-adv-x="692" />
<glyph unicode="&#xa0;" horiz-adv-x="692" />
<glyph unicode="!" horiz-adv-x="215" d="M41 57q0 25 20.5 44.5t47.5 19.5q26 0 45.5 -19.5t19.5 -44.5q0 -28 -19.5 -47.5t-45.5 -19.5q-28 0 -48 19.5t-20 47.5zM57 1434h103l-45 -1225h-13z" />
<glyph unicode="&#x22;" horiz-adv-x="374" d="M41 1389q0 28 16.5 43.5t40.5 15.5t41 -16t17 -41q0 -18 -29 -111t-29 -152q0 58 -28.5 148t-28.5 113zM219 1389q0 28 16.5 43.5t40.5 15.5t41 -16t17 -41q0 -18 -29 -111t-29 -152q0 58 -28.5 148t-28.5 113z" />
<glyph unicode="#" horiz-adv-x="1441" d="M41 385l16 31h297l144 571h-381l16 31h373l104 416h33l-104 -416h536l105 416h32l-104 -416h293l-17 -31h-284l-144 -571h369l-16 -31h-361l-96 -385h-33l96 385h-536l-96 -385h-33l96 385h-305zM387 416h537l143 571h-537z" />
<glyph unicode="$" horiz-adv-x="983" d="M18 246q0 89 60 140.5t164 51.5q-51 0 -83 -47t-32 -121q0 -78 34 -133.5t92 -84.5t121 -41.5t136 -12.5v694q-21 10 -63.5 29.5t-65.5 30t-61 30t-60 32.5t-53 34t-48.5 38.5t-38.5 42t-31.5 48.5t-18 53.5t-7.5 61.5q0 144 125 244.5t322 115.5v231h33v-229 q53 0 107 -6.5t118.5 -24t104.5 -56.5t40 -95q0 -66 -66.5 -94.5t-193.5 -28.5q71 0 113.5 32t42.5 97q0 154 -266 154v-676q55 -26 86 -41t79.5 -42.5t76.5 -48.5t62 -53t52 -63.5t30.5 -72t12.5 -85.5q0 -139 -106 -240.5t-293 -125.5v-256h-33v254q-62 -5 -74 -5 q-191 0 -304.5 73t-113.5 196zM145 1151q0 -41 11 -78t28 -66.5t47 -58.5t57 -50t69 -46t73.5 -41t79.5 -39v660q-185 -7 -275 -84t-90 -197zM543 0q151 13 232 92.5t81 208.5q0 70 -24 128t-71 103t-97 77t-121 67v-676z" />
<glyph unicode="%" horiz-adv-x="1177" d="M41 1057q0 175 71.5 287t176.5 112q102 0 172.5 -112t70.5 -287t-70.5 -287.5t-172.5 -112.5q-105 0 -176.5 112t-71.5 288zM88 1102q0 -184 63.5 -305t161.5 -121q77 0 123.5 83.5t46.5 239.5q0 187 -62 316t-151 129q-81 0 -131.5 -90.5t-50.5 -251.5zM221 0l686 1434 h33l-686 -1434h-33zM645 410q0 175 71.5 287t176.5 112q102 0 173 -112t71 -287t-71 -287.5t-173 -112.5q-105 0 -176.5 112t-71.5 288zM692 455q0 -184 64 -305t162 -121q77 0 123 83.5t46 239.5q0 187 -62 316t-151 129q-81 0 -131.5 -90.5t-50.5 -251.5z" />
<glyph unicode="&#x26;" horiz-adv-x="1282" d="M41 340q0 134 89.5 238.5t240.5 148.5q-131 195 -131 371q0 145 97 241.5t230 96.5q119 0 198 -80t79 -201q0 -76 -33.5 -144.5t-90 -119t-122 -87.5t-137.5 -59q165 -229 549 -501q37 72 37 151q0 127 -79 211t-184 84q-55 0 -82 -41l-2 2q56 92 148 92q101 0 170 -87 t69 -220q0 -116 -57 -207q160 -109 211 -143l-117 -20l-143 96q-78 -86 -204 -133t-271 -47q-214 0 -339.5 99.5t-125.5 258.5zM123 369q0 -163 111.5 -267t297.5 -104q124 0 242 46.5t189 131.5q-413 293 -586 543q-122 -47 -188 -138t-66 -212zM309 1155q0 -194 146 -401 q56 23 106.5 55.5t97.5 80t75 114t28 143.5q0 120 -62.5 191t-158.5 71q-98 0 -165 -70t-67 -184z" />
<glyph unicode="'" horiz-adv-x="196" d="M41 1389q0 28 16.5 43.5t40.5 15.5t41 -16t17 -41q0 -18 -29 -111t-29 -152q0 58 -28.5 148t-28.5 113z" />
<glyph unicode="(" horiz-adv-x="376" d="M41 627q0 236 74.5 442.5t208.5 423.5l12 -4q-99 -178 -156 -440t-57 -478q0 -209 55.5 -451t157.5 -429l-12 -4q-59 109 -104 207t-88.5 220t-67 252.5t-23.5 260.5z" />
<glyph unicode=")" horiz-adv-x="376" d="M41 -309q99 178 156 439.5t57 477.5q0 209 -55.5 451.5t-157.5 429.5l12 4q59 -109 104 -207t88.5 -220t67 -252.5t23.5 -260.5q0 -236 -74.5 -442.5t-208.5 -423.5z" />
<glyph unicode="*" horiz-adv-x="874" d="M41 1139l14 102l373 -84l-43 379h102l-41 -379l373 84l15 -102h-377l219 -326l-92 -47l-148 362l-145 -362l-92 47l219 326h-377z" />
<glyph unicode="+" horiz-adv-x="755" d="M41 674v26h319v324h31v-324h324v-26h-324v-324h-31v324h-319z" />
<glyph unicode="," horiz-adv-x="196" d="M41 63q0 27 16.5 42.5t40.5 15.5t41 -15.5t17 -39.5q0 -40 -37 -141.5t-62 -123.5q20 35 21.5 76t-8 71t-19.5 64t-10 51z" />
<glyph unicode="-" horiz-adv-x="581" d="M41 541v26h500v-26h-500z" />
<glyph unicode="." horiz-adv-x="212" d="M41 57q0 25 20.5 44.5t47.5 19.5q26 0 45.5 -19.5t19.5 -44.5q0 -28 -19.5 -47.5t-45.5 -19.5q-28 0 -48 19.5t-20 47.5z" />
<glyph unicode="/" horiz-adv-x="653" d="M41 0l539 1434h32l-538 -1434h-33z" />
<glyph unicode="0" horiz-adv-x="983" d="M41 416q0 157 95 273t245 149q-101 63 -156 133.5t-55 171.5q0 133 91 222t226 89q136 0 231 -91t95 -222q0 -123 -85.5 -205.5t-211.5 -91.5q18 -10 55 -29q40 -21 61 -32t59 -32.5t58.5 -36.5t51 -38.5t47.5 -43.5t37.5 -48.5t31 -56t18 -62.5t7.5 -72 q0 -175 -128 -294t-314 -119q-193 0 -326 126t-133 310zM113 477q0 -201 124.5 -330t319.5 -129q151 0 235.5 80.5t84.5 223.5q0 53 -13 100.5t-33 84t-52.5 71.5t-64.5 60t-76.5 53t-79.5 47t-83.5 45.5t-79.5 45.5q-129 -28 -205.5 -124t-76.5 -228zM229 1196 q0 -61 21 -112.5t63 -93.5t85 -72.5t106 -65.5q107 5 179.5 72.5t72.5 185.5q0 134 -89 231t-212 97q-99 0 -162.5 -66t-63.5 -176z" />
<glyph unicode="8" horiz-adv-x="983" d="M41 416q0 157 95 273t245 149q-101 63 -156 133.5t-55 171.5q0 133 91 222t226 89q136 0 231 -91t95 -222q0 -123 -85.5 -205.5t-211.5 -91.5q18 -10 55 -29q40 -21 61 -32t59 -32.5t58.5 -36.5t51 -38.5t47.5 -43.5t37.5 -48.5t31 -56t18 -62.5t7.5 -72 q0 -175 -128 -294t-314 -119q-193 0 -326 126t-133 310zM113 477q0 -201 124.5 -330t319.5 -129q151 0 235.5 80.5t84.5 223.5q0 53 -13 100.5t-33 84t-52.5 71.5t-64.5 60t-76.5 53t-79.5 47t-83.5 45.5t-79.5 45.5q-129 -28 -205.5 -124t-76.5 -228zM229 1196 q0 -61 21 -112.5t63 -93.5t85 -72.5t106 -65.5q107 5 179.5 72.5t72.5 185.5q0 134 -89 231t-212 97q-99 0 -162.5 -66t-63.5 -176z" />
<glyph unicode="7" horiz-adv-x="983" d="M41 416q0 157 95 273t245 149q-101 63 -156 133.5t-55 171.5q0 133 91 222t226 89q136 0 231 -91t95 -222q0 -123 -85.5 -205.5t-211.5 -91.5q18 -10 55 -29q40 -21 61 -32t59 -32.5t58.5 -36.5t51 -38.5t47.5 -43.5t37.5 -48.5t31 -56t18 -62.5t7.5 -72 q0 -175 -128 -294t-314 -119q-193 0 -326 126t-133 310zM113 477q0 -201 124.5 -330t319.5 -129q151 0 235.5 80.5t84.5 223.5q0 53 -13 100.5t-33 84t-52.5 71.5t-64.5 60t-76.5 53t-79.5 47t-83.5 45.5t-79.5 45.5q-129 -28 -205.5 -124t-76.5 -228zM229 1196 q0 -61 21 -112.5t63 -93.5t85 -72.5t106 -65.5q107 5 179.5 72.5t72.5 185.5q0 134 -89 231t-212 97q-99 0 -162.5 -66t-63.5 -176z" />
<glyph unicode="6" horiz-adv-x="983" d="M41 416q0 157 95 273t245 149q-101 63 -156 133.5t-55 171.5q0 133 91 222t226 89q136 0 231 -91t95 -222q0 -123 -85.5 -205.5t-211.5 -91.5q18 -10 55 -29q40 -21 61 -32t59 -32.5t58.5 -36.5t51 -38.5t47.5 -43.5t37.5 -48.5t31 -56t18 -62.5t7.5 -72 q0 -175 -128 -294t-314 -119q-193 0 -326 126t-133 310zM113 477q0 -201 124.5 -330t319.5 -129q151 0 235.5 80.5t84.5 223.5q0 53 -13 100.5t-33 84t-52.5 71.5t-64.5 60t-76.5 53t-79.5 47t-83.5 45.5t-79.5 45.5q-129 -28 -205.5 -124t-76.5 -228zM229 1196 q0 -61 21 -112.5t63 -93.5t85 -72.5t106 -65.5q107 5 179.5 72.5t72.5 185.5q0 134 -89 231t-212 97q-99 0 -162.5 -66t-63.5 -176z" />
<glyph unicode="5" horiz-adv-x="983" d="M41 416q0 157 95 273t245 149q-101 63 -156 133.5t-55 171.5q0 133 91 222t226 89q136 0 231 -91t95 -222q0 -123 -85.5 -205.5t-211.5 -91.5q18 -10 55 -29q40 -21 61 -32t59 -32.5t58.5 -36.5t51 -38.5t47.5 -43.5t37.5 -48.5t31 -56t18 -62.5t7.5 -72 q0 -175 -128 -294t-314 -119q-193 0 -326 126t-133 310zM113 477q0 -201 124.5 -330t319.5 -129q151 0 235.5 80.5t84.5 223.5q0 53 -13 100.5t-33 84t-52.5 71.5t-64.5 60t-76.5 53t-79.5 47t-83.5 45.5t-79.5 45.5q-129 -28 -205.5 -124t-76.5 -228zM229 1196 q0 -61 21 -112.5t63 -93.5t85 -72.5t106 -65.5q107 5 179.5 72.5t72.5 185.5q0 134 -89 231t-212 97q-99 0 -162.5 -66t-63.5 -176z" />
<glyph unicode="4" horiz-adv-x="983" d="M41 416q0 157 95 273t245 149q-101 63 -156 133.5t-55 171.5q0 133 91 222t226 89q136 0 231 -91t95 -222q0 -123 -85.5 -205.5t-211.5 -91.5q18 -10 55 -29q40 -21 61 -32t59 -32.5t58.5 -36.5t51 -38.5t47.5 -43.5t37.5 -48.5t31 -56t18 -62.5t7.5 -72 q0 -175 -128 -294t-314 -119q-193 0 -326 126t-133 310zM113 477q0 -201 124.5 -330t319.5 -129q151 0 235.5 80.5t84.5 223.5q0 53 -13 100.5t-33 84t-52.5 71.5t-64.5 60t-76.5 53t-79.5 47t-83.5 45.5t-79.5 45.5q-129 -28 -205.5 -124t-76.5 -228zM229 1196 q0 -61 21 -112.5t63 -93.5t85 -72.5t106 -65.5q107 5 179.5 72.5t72.5 185.5q0 134 -89 231t-212 97q-99 0 -162.5 -66t-63.5 -176z" />
<glyph unicode="3" horiz-adv-x="983" d="M41 416q0 157 95 273t245 149q-101 63 -156 133.5t-55 171.5q0 133 91 222t226 89q136 0 231 -91t95 -222q0 -123 -85.5 -205.5t-211.5 -91.5q18 -10 55 -29q40 -21 61 -32t59 -32.5t58.5 -36.5t51 -38.5t47.5 -43.5t37.5 -48.5t31 -56t18 -62.5t7.5 -72 q0 -175 -128 -294t-314 -119q-193 0 -326 126t-133 310zM113 477q0 -201 124.5 -330t319.5 -129q151 0 235.5 80.5t84.5 223.5q0 53 -13 100.5t-33 84t-52.5 71.5t-64.5 60t-76.5 53t-79.5 47t-83.5 45.5t-79.5 45.5q-129 -28 -205.5 -124t-76.5 -228zM229 1196 q0 -61 21 -112.5t63 -93.5t85 -72.5t106 -65.5q107 5 179.5 72.5t72.5 185.5q0 134 -89 231t-212 97q-99 0 -162.5 -66t-63.5 -176z" />
<glyph unicode="2" horiz-adv-x="983" d="M41 416q0 157 95 273t245 149q-101 63 -156 133.5t-55 171.5q0 133 91 222t226 89q136 0 231 -91t95 -222q0 -123 -85.5 -205.5t-211.5 -91.5q18 -10 55 -29q40 -21 61 -32t59 -32.5t58.5 -36.5t51 -38.5t47.5 -43.5t37.5 -48.5t31 -56t18 -62.5t7.5 -72 q0 -175 -128 -294t-314 -119q-193 0 -326 126t-133 310zM113 477q0 -201 124.5 -330t319.5 -129q151 0 235.5 80.5t84.5 223.5q0 53 -13 100.5t-33 84t-52.5 71.5t-64.5 60t-76.5 53t-79.5 47t-83.5 45.5t-79.5 45.5q-129 -28 -205.5 -124t-76.5 -228zM229 1196 q0 -61 21 -112.5t63 -93.5t85 -72.5t106 -65.5q107 5 179.5 72.5t72.5 185.5q0 134 -89 231t-212 97q-99 0 -162.5 -66t-63.5 -176z" />
<glyph unicode="1" horiz-adv-x="983" d="M41 416q0 157 95 273t245 149q-101 63 -156 133.5t-55 171.5q0 133 91 222t226 89q136 0 231 -91t95 -222q0 -123 -85.5 -205.5t-211.5 -91.5q18 -10 55 -29q40 -21 61 -32t59 -32.5t58.5 -36.5t51 -38.5t47.5 -43.5t37.5 -48.5t31 -56t18 -62.5t7.5 -72 q0 -175 -128 -294t-314 -119q-193 0 -326 126t-133 310zM113 477q0 -201 124.5 -330t319.5 -129q151 0 235.5 80.5t84.5 223.5q0 53 -13 100.5t-33 84t-52.5 71.5t-64.5 60t-76.5 53t-79.5 47t-83.5 45.5t-79.5 45.5q-129 -28 -205.5 -124t-76.5 -228zM229 1196 q0 -61 21 -112.5t63 -93.5t85 -72.5t106 -65.5q107 5 179.5 72.5t72.5 185.5q0 134 -89 231t-212 97q-99 0 -162.5 -66t-63.5 -176z" />
<glyph unicode="9" horiz-adv-x="966" d="M41 1001q0 195 124.5 318t319.5 123q209 0 325 -146t116 -409q0 -184 -58 -348.5t-161.5 -287.5t-256 -195t-331.5 -72v10q116 0 216.5 35t172.5 91t130.5 132t95.5 154t63 160.5t38 146.5t15 118q-67 -286 -352 -286q-200 0 -328.5 128.5t-128.5 327.5zM123 1028 q0 -206 108 -334.5t281 -128.5q68 0 126.5 21.5t107 67t76.5 126t28 187.5q0 208 -100 336.5t-277 128.5q-159 0 -254.5 -106t-95.5 -298z" />
<glyph unicode=":" horiz-adv-x="215" d="M41 57q0 25 20.5 44.5t47.5 19.5q26 0 45.5 -19.5t19.5 -44.5q0 -28 -19.5 -47.5t-45.5 -19.5q-28 0 -48 19.5t-20 47.5zM41 575q0 25 20.5 44.5t47.5 19.5q26 0 45.5 -19.5t19.5 -44.5q0 -28 -19.5 -47.5t-45.5 -19.5q-28 0 -48 19.5t-20 47.5z" />
<glyph unicode=";" horiz-adv-x="215" d="M41 575q0 25 20.5 44.5t47.5 19.5q26 0 45.5 -19.5t19.5 -44.5q0 -28 -19.5 -47.5t-45.5 -19.5q-28 0 -48 19.5t-20 47.5zM51 63q0 27 17 42.5t41 15.5t40.5 -15.5t16.5 -39.5q0 -40 -36.5 -141.5t-61.5 -123.5q20 35 21.5 76t-8 71t-20 64t-10.5 51z" />
<glyph unicode="&#x3c;" horiz-adv-x="968" d="M41 690v8l874 394l13 -29l-819 -369l819 -368l-13 -29z" />
<glyph unicode="=" horiz-adv-x="755" d="M41 532v27h674v-27h-674zM41 821v27h674v-27h-674z" />
<glyph unicode="&#x3e;" horiz-adv-x="968" d="M41 326l819 368l-819 369l12 29l875 -394v-8l-875 -393z" />
<glyph unicode="?" horiz-adv-x="825" d="M41 1104q0 154 105.5 252t261.5 98q163 0 269.5 -106t106.5 -261q0 -69 -24 -136t-62.5 -124t-85.5 -114t-94.5 -115.5t-87.5 -117.5t-67 -131t-31 -146h-41q-4 89 17 170t57 143.5t80.5 121t89.5 114t82.5 110.5t61 121.5t23.5 136.5q0 138 -80 228t-206 90 q-129 0 -214 -92t-85 -236q0 -117 54.5 -204t129.5 -87q-126 0 -193 83t-67 202zM244 57q0 25 20 44.5t47 19.5q26 0 46 -19.5t20 -44.5q0 -27 -19.5 -47t-46.5 -20q-28 0 -47.5 19.5t-19.5 47.5z" />
<glyph unicode="@" horiz-adv-x="1556" d="M47 612q16 184 91 343.5t188 269.5t257 172.5t296 62.5q146 0 270.5 -58t208.5 -159t125.5 -244t27.5 -307q-14 -156 -71.5 -289t-145 -211.5t-182.5 -78.5t-157 73.5t-37 186.5l14 65q-55 -70 -124.5 -107.5t-143.5 -37.5q-135 0 -196 112.5t-24 294.5q38 186 149.5 299 t258.5 113q56 0 102 -17t82.5 -56t46.5 -102.5t-6 -156.5l-86 -409q-26 -125 12.5 -182.5t120.5 -57.5q126 0 202.5 121.5t96.5 355.5q12 141 -0.5 266t-52.5 231t-105.5 182.5t-163 119.5t-220.5 43q-140 0 -268.5 -55.5t-230 -155.5t-168.5 -249.5t-83 -327.5 q-15 -177 24.5 -330.5t121.5 -260.5t202.5 -168t263.5 -61q147 0 295 66l4 -10q-144 -66 -299 -66q-166 0 -302 55t-228.5 154.5t-137 246.5t-28.5 324zM508.5 539.5q5.5 -101.5 51.5 -170t124 -68.5q65 0 136 45.5t118 112.5l55 274q18 84 16 145.5t-14.5 103.5t-40 67 t-59 36t-70.5 11q-110 0 -188 -85.5t-113 -252.5q-21 -117 -15.5 -218.5z" />
<glyph unicode="A" horiz-adv-x="1255" d="M8 199q9 301 379 1046q21 42 59 116l46 93l555 -1362q12 -30 40.5 -47.5t56.5 -22.5t57.5 -10t39.5 -12h-426q10 6 56.5 13.5t75 22t16.5 42.5l-514 1265q-102 -194 -199.5 -427.5t-143.5 -430.5q53 0 102.5 -0.5t95.5 0.5h78q60 -1 128 -1q113 -2 192 -5l-598 -4 q-18 -76 -25 -140q-5 -43 -4 -83q1 -20 1 -39q4 -58 21.5 -99t50 -69.5t84.5 -32.5q13 -1 27 -1q42 0 95 9q-106 -39 -179 -39q-167 0 -167 203v15z" />
<glyph unicode="B" horiz-adv-x="1153" d="M41 1454q9 -3 30.5 -10.5t33.5 -11.5t32.5 -12t33 -15t30.5 -18.5t29 -23.5t23.5 -28.5t20 -34.5t13 -41.5t6.5 -50.5q26 114 111.5 179t207.5 67h6q147 0 251 -89q106 -91 106 -245q0 -117 -63 -217.5t-169 -159.5q165 -5 267 -97.5t102 -254.5q0 -190 -146 -290.5 t-417 -100.5h-463q8 5 42.5 8.5t58.5 16.5t24 43v1122q0 36 -4.5 67t-9.5 52t-18.5 41t-20 30t-27.5 24.5t-27 18t-32.5 16.5t-30.5 15zM293 10h282q218 0 336.5 97t118.5 282q0 160 -84 253t-215 95q-115 -59 -242 -59q-109 0 -196 41v-709zM293 729q90 -41 196 -41 q170 0 287 120t117 294q-1 154 -91 246q-89 90 -211 90h-5q-118 -2 -205.5 -88t-87.5 -232v-389z" />
<glyph unicode="C" horiz-adv-x="1034" d="M41 719q0 336 132 535.5t353 199.5q138 0 223 -76.5t85 -201.5q0 -100 -59 -153.5t-171 -53.5q67 0 110.5 61t43.5 154q0 116 -69.5 182t-190.5 66q-183 0 -289.5 -153.5t-106.5 -418.5q0 -254 62 -452q60 -199 174 -309q110 -107 252 -107h8q143 3 234.5 106.5 t91.5 263.5q0 109 -44 179.5t-116 74.5q11 1 21 1q88 -1 145 -61q63 -68 63 -187q0 -167 -122 -278t-306 -111q-243 0 -383.5 198.5t-140.5 540.5z" />
<glyph unicode="D" horiz-adv-x="1185" d="M41 1454q9 -3 30.5 -10.5t33.5 -11.5t32.5 -12t33 -15t30.5 -18.5t29 -23.5t23.5 -28.5t20 -34.5t13 -41.5t6.5 -50.5q26 113 119.5 178.5t226.5 67.5h7q224 0 360 -185q138 -188 139 -503q0 -363 -186 -580t-490 -217q-109 0 -176 31h-207q8 5 42.5 8.5t58.5 16.5t24 43 v1122q0 36 -4.5 67t-9.5 52t-18.5 41t-20 30t-27.5 24.5t-27 18t-32.5 16.5t-30.5 15zM293 10q61 -30 170 -30q272 0 438 205.5t166 549.5q0 202 -59 363q-60 162 -164 252q-102 88 -228 88h-6q-128 -2 -222.5 -88t-94.5 -232v-1108z" />
<glyph unicode="E" horiz-adv-x="1087" d="M41 1454q9 -3 30.5 -10.5t33.5 -11.5t32.5 -12t33 -15t30.5 -18.5t29 -23.5t23.5 -28.5t20 -34.5t13 -41.5t6.5 -50.5q26 114 115.5 179.5t224.5 66.5h4q149 0 241 -78q92 -80 93 -211q0 -83 -50.5 -130.5t-138.5 -47.5q54 0 83.5 48.5t29.5 127.5q-1 121 -81 199 q-79 77 -205 76h-3q-132 -2 -222.5 -87t-90.5 -233v-440h93h78h57h95q84 -2 166 -6l-489 -4v-658h278q181 0 290.5 76.5t109.5 204.5q0 79 -29.5 127.5t-83.5 48.5q88 0 138.5 -47.5t50.5 -130.5q0 -138 -127 -217q-117 -73 -303 -73q-16 0 -33 1h-498q8 5 42.5 8.5 t58.5 16.5t24 43v1122q0 36 -4.5 67t-9.5 52t-18.5 41t-20 30t-27.5 24.5t-27 18t-32.5 16.5t-30.5 15z" />
<glyph unicode="F" horiz-adv-x="1011" d="M41 1454q9 -3 30.5 -10.5t33.5 -11.5t32.5 -12t33 -15t30.5 -18.5t29 -23.5t23.5 -28.5t20 -34.5t13 -41.5t6.5 -50.5q26 114 115.5 179.5t224.5 66.5h4q151 0 242 -79q92 -80 92 -210q0 -83 -50.5 -130.5t-138.5 -47.5q54 0 83.5 48.5t29.5 127.5q0 122 -81 199 q-80 76 -205 76h-3q-132 -2 -222.5 -87t-90.5 -233v-440h93h78h57h95q84 -2 166 -6l-489 -4v-600q0 -30 24 -43t58.5 -17t42.5 -8h-332q8 5 42.5 8.5t58.5 16.5t24 43v1122q0 36 -4.5 67t-9.5 52t-18.5 41t-20 30t-27.5 24.5t-27 18t-32.5 16.5t-30.5 15z" />
<glyph unicode="G" horiz-adv-x="1112" d="M41 719q0 336 132 535.5t353 199.5q138 0 223 -76.5t85 -201.5q0 -96 -53.5 -150.5t-155.5 -58.5q59 9 96 70t37 147q0 116 -69.5 182t-190.5 66q-183 0 -289.5 -153.5t-106.5 -418.5q0 -187 35 -351t93 -277t136 -177q78 -63 161 -63h3q108 2 202 97t122 235v315 l-350 -16q16 7 34.5 11.5t45.5 7.5t48.5 4.5t62 2.5t67.5 1t83 0.5t91 0.5v-583q0 -30 24 -43t58.5 -16.5t42.5 -8.5h-332q8 5 42.5 8.5t58.5 16.5t24 43v215q-40 -140 -133 -221.5t-217 -81.5q-201 0 -332 202t-131 537z" />
<glyph unicode="H" horiz-adv-x="1288" d="M41 1454q10 -4 32 -11t34.5 -11.5t33.5 -13t34 -16t31 -19.5t29 -24.5t23 -30.5t19 -38t11.5 -45.5t4.5 -54.5v-506h702v682q0 30 -24 43t-58.5 16.5t-42.5 8.5h332q-8 -5 -42.5 -8.5t-58.5 -16.5t-24 -43v-1122q0 -36 4.5 -67t9.5 -52t18.5 -41t20 -30t27.5 -24.5 t27 -18t32.5 -16.5t30.5 -15q-10 4 -32 11t-34.5 11.5t-33.5 13t-34 16t-31 19.5t-29 24.5t-23 30.5t-19 38t-11.5 45.5t-4.5 54.5v430h-702v-606q0 -30 24 -43t58.5 -17t42.5 -8h-332q8 5 42.5 8.5t58.5 16.5t24 43v1122q0 36 -4.5 67t-9.5 52t-18.5 41t-20 30t-27.5 24.5 t-27 18t-32.5 16.5t-30.5 15z" />
<glyph unicode="I" horiz-adv-x="540" d="M41 1454q10 -4 32 -11t34.5 -11.5t33.5 -13t34 -16t31 -19.5t29 -24.5t23 -30.5t19 -38t11.5 -45.5t4.5 -54.5v-1122q0 -30 24 -43t58.5 -17t42.5 -8h-332q8 5 42.5 8.5t58.5 16.5t24 43v1122q0 36 -4.5 67t-9.5 52t-18.5 41t-20 30t-27.5 24.5t-27 18t-32.5 16.5 t-30.5 15z" />
<glyph unicode="J" horiz-adv-x="1013" d="M61 299q0 83 50.5 130.5t138.5 47.5q-54 0 -83.5 -48.5t-29.5 -127.5q0 -129 89 -217q88 -88 242 -88h3q162 2 239.5 116.5t77.5 356.5v727q0 36 -4.5 67t-9.5 52t-18.5 41t-20 30t-27.5 24.5t-27 18t-32.5 16.5t-30.5 15q10 -4 32 -11t34.5 -11.5t33.5 -13t34 -16 t31 -19.5t29 -24.5t23 -30.5t19 -38t11.5 -45.5t4.5 -54.5v-727q0 -221 -119.5 -354.5t-320.5 -134.5h-4q-169 0 -266 91q-99 92 -99 228z" />
<glyph unicode="K" horiz-adv-x="1163" d="M41 1454q10 -4 32 -11t34.5 -11.5t33.5 -13t34 -16t31 -19.5t29 -24.5t23 -30.5t19 -38t11.5 -45.5t4.5 -54.5v-428q150 67 313 246q141 156 194 284q21 50 21 82q0 44 -40 54q-23 5 -60 -3q70 24 112 24q62 0 65 -52q0 -3 1 -6q0 -81 -123 -235q-135 -172 -314 -303 l-67 -46q92 -4 168 -40t126.5 -92.5t94.5 -128.5t73.5 -146.5t60.5 -146.5t58.5 -129.5t66 -95t83.5 -42.5q-67 5 -120.5 35t-89 77.5t-65 107.5t-53.5 125.5t-49 131t-57.5 125t-72.5 105.5t-100 74.5t-136 31.5q-57 -33 -90 -49v-682q0 -30 24 -43t58.5 -17t42.5 -8h-332 q8 5 42.5 8.5t58.5 16.5t24 43v1122q0 36 -4.5 67t-9.5 52t-18.5 41t-20 30t-27.5 24.5t-27 18t-32.5 16.5t-30.5 15zM1126 -14h17h-17z" />
<glyph unicode="L" horiz-adv-x="1087" d="M41 1454q10 -4 32 -11t34.5 -11.5t33.5 -13t34 -16t31 -19.5t29 -24.5t23 -30.5t19 -38t11.5 -45.5t4.5 -54.5v-1180h278q181 0 290.5 76.5t109.5 204.5q0 79 -29.5 127.5t-83.5 48.5q88 0 138.5 -47.5t50.5 -130.5q0 -138 -127 -217q-117 -73 -303 -73q-16 0 -33 1h-498 q8 5 42.5 8.5t58.5 16.5t24 43v1122q0 36 -4.5 67t-9.5 52t-18.5 41t-20 30t-27.5 24.5t-27 18t-32.5 16.5t-30.5 15z" />
<glyph unicode="M" horiz-adv-x="1654" d="M-213 -389q86 25 152.5 82.5t109.5 137t70 187t38 222.5t11 252v874q0 30 -24 43t-58.5 16.5t-42.5 8.5h184l553 -783q26 48 67 103t101 121t110.5 119t132.5 137.5t130 134.5q-4 27 -11 49t-19 39.5t-20.5 28.5t-27 23t-27 17t-31.5 16t-30 15q10 -4 32 -11t34.5 -11.5 t33.5 -13t34 -16t31 -19.5t29 -24.5t23 -30.5t19 -38t11.5 -45.5t4.5 -54.5v-1143q0 -30 24 -42.5t58.5 -16.5t42.5 -8h-332q8 5 42.5 8.5t58.5 16t24 42.5v1143q0 23 -4 59q-60 -64 -163 -170.5t-159 -166t-117.5 -135.5t-93.5 -136q76 -96 118 -195.5t46 -181.5 q1 -13 1 -25q-1 -67 -19 -121q-22 -65 -70.5 -101.5t-115.5 -36.5q-77 0 -114 50q-34 46 -34 121v12q3 84 36.5 191t94.5 226l-553 784v-895q0 -41 1 -122v-66q1 -49 1 -97v-25q0 -66 -7 -127q-8 -73 -21 -137t-41.5 -116t-70 -89.5t-105.5 -58t-148 -20.5zM655 235 q0 -69 15.5 -123t46 -83t71.5 -29q39 0 68 26q30 26 42 78q7 30 6 65q0 27 -4 55q-8 68 -48.5 158t-110.5 185q-42 -88 -64 -175.5t-22 -156.5z" />
<glyph unicode="N" horiz-adv-x="1185" d="M61 1434h189l794 -1276v329q0 126 -7 237.5t-22.5 224.5t-44 200.5t-68.5 154t-100 96.5q-43 22 -92 22q-20 0 -40 -3q67 27 122 29q4 0 7 -1q49 -1 87 -19q40 -20 70 -58.5t49 -91t31 -115.5t18 -132q4 -69 6 -141q1 -44 1 -86v-56q-1 -70 -3 -134q-1 -36 -1.5 -55 t-1 -46t-0.5 -48v-324l2 -161l-860 1384v-424q0 -126 7 -237.5t22.5 -224.5t44 -200.5t68.5 -153.5q39 -68 99 -98q43 -22 93 -22q20 0 40 4q-67 -26 -122 -28q-4 0 -7 -1q-50 -1 -88 19q-40 20 -69.5 59t-48.5 92t-31 116t-17.5 132t-7.5 141q-1 44 0 86v56q1 70 3 134 q1 36 1.5 55t1 46t0.5 48v403q0 30 -24 43t-58.5 16.5t-42.5 8.5z" />
<glyph unicode="O" d="M41 717q0 317 129 520l2 -2q-66 -124 -66 -375q0 -256 58 -450t164 -300q104 -104 240 -104h5q176 3 285 151t109 392q0 258 -58.5 459.5t-164 313.5t-240.5 112q-124 0 -200.5 -75t-76.5 -194q0 -114 69.5 -179.5t172.5 -65.5q113 0 160 77q-34 -68 -86 -105.5 t-115 -37.5q-92 0 -158.5 77.5t-66.5 207.5q0 149 90.5 233t243.5 84q218 0 354.5 -205.5t136.5 -533.5q0 -216 -61.5 -383.5t-173.5 -260.5t-256 -93q-145 0 -258 93t-175.5 261t-62.5 383z" />
<glyph unicode="P" horiz-adv-x="1067" d="M41 1454q9 -3 30.5 -10.5t33.5 -11.5t32.5 -12t33 -15t30.5 -18.5t29 -23.5t23.5 -28.5t20 -34.5t13 -41.5t6.5 -50.5q26 110 117 176.5t219 69.5h15q164 0 270 -105q112 -110 112 -294q0 -216 -152 -361t-378 -145q-116 0 -203 41v-522q0 -30 24 -43t58.5 -17t42.5 -8 h-332q8 5 42.5 8.5t58.5 16.5t24 43v1122q0 36 -4.5 67t-9.5 52t-18.5 41t-20 30t-27.5 24.5t-27 18t-32.5 16.5t-30.5 15zM293 600q90 -41 196 -41q199 0 327 136t128 349q0 103 -33 183t-85.5 124t-110.5 66q-55 21 -112 21h-5q-76 -1 -144 -37t-114.5 -110.5 t-46.5 -172.5v-518z" />
<glyph unicode="Q" d="M41 717q0 329 138 534t358 205q218 0 354.5 -205.5t136.5 -533.5q0 -217 -62 -385t-173 -258l-11 -8q41 -85 41 -178q0 -58 -16 -119q-36 -147 -137 -215q-69 -47 -149 -47q-37 0 -77 10q-80 22 -114 83q-20 36 -20 80q0 30 9 64q-3 -13 -3 -26q0 -37 30 -68 q39 -41 115 -60q40 -11 78 -11q72 0 135 39q94 60 125 185q12 50 12 99q0 82 -35 159q-104 -81 -239 -81q-145 0 -258 93t-175.5 261t-62.5 383zM106 860q0 -256 58 -450.5t164 -299.5q104 -104 240 -104h5q117 3 199 64q-56 119 -194 159q134 -37 200 -155q90 65 139.5 188 t49.5 287q0 258 -58.5 459.5t-164 313.5t-240.5 112q-180 0 -289 -157t-109 -417z" />
<glyph unicode="R" horiz-adv-x="1249" d="M41 1454q9 -3 30.5 -10.5t33.5 -11.5t32.5 -12t33 -15t30.5 -18.5t29 -23.5t23.5 -28.5t20 -34.5t13 -41.5t6.5 -50.5q26 113 118.5 178.5t221.5 67.5h9q165 0 273 -106q111 -109 111 -291q0 -163 -91.5 -279.5t-236.5 -169.5q38 -54 92 -136.5t92 -141t87.5 -126 t88 -110t82.5 -73.5t83 -35q-38 3 -75 15t-68.5 28.5t-66.5 46t-60.5 54t-59 67.5t-54.5 71t-54.5 79.5t-50.5 79t-51 83.5t-48 80q-77 -17 -141 -17q-114 0 -201 41v-546q0 -30 24 -43t58.5 -17t42.5 -8h-332q8 5 42.5 8.5t58.5 16.5t24 43v1122q0 36 -4.5 67t-9.5 52 t-18.5 41t-20 30t-27.5 24.5t-27 18t-32.5 16.5t-30.5 15zM293 625q90 -41 196 -41q77 0 138 20q-45 75 -80.5 126.5t-78.5 101.5t-87 76.5t-88 29.5v-313zM293 946q97 -4 193 -89t200 -232q116 53 187 160.5t71 261.5q0 102 -33 181.5t-85.5 123.5t-110.5 66 q-55 21 -112 20h-5q-76 -1 -144 -37t-114.5 -110.5t-46.5 -172.5v-172z" />
<glyph unicode="S" horiz-adv-x="1167" d="M61 246q0 89 60 140.5t164 51.5q-51 0 -83 -47t-32 -121q0 -125 96 -198.5t264 -73.5q176 0 272.5 81.5t96.5 221.5q0 134 -85.5 231.5t-266.5 194.5q-176 95 -262.5 171.5t-96.5 172.5q-2 20 -2 39q0 87 44 160q54 89 155.5 136.5t226.5 47.5q163 0 264 -59.5 t101 -143.5q0 -66 -66.5 -94.5t-193.5 -28.5q71 0 113 32t42 97q0 80 -71.5 127.5t-216.5 47.5q-88 0 -153 -25t-101 -68t-51 -96q-11 -38 -11 -79q0 -17 2 -34q10 -100 89 -178t229 -159q205 -111 301 -213.5t96 -229.5q0 -160 -136 -266.5t-370 -106.5q-191 0 -304.5 73 t-113.5 196z" />
<glyph unicode="T" horiz-adv-x="1167" d="M20 1202q0 107 98 171q97 63 258 63h5l162 -2h82l161 2h5q159 0 257 -63q98 -64 99 -171q0 -76 -51 -122t-138 -46q48 0 77.5 42t29.5 112q0 229 -336 235l-104 2v-1357q0 -30 24 -43t58.5 -17t42.5 -8h-332q8 5 42.5 8.5t58.5 16.5t24 43v1357l-105 -2 q-336 -6 -336 -235q0 -70 29 -112t78 -42q-87 0 -138 46t-51 122z" />
<glyph unicode="U" horiz-adv-x="1191" d="M20 1454q10 -4 32 -11t34.5 -11.5t33.5 -13t34 -16t31 -19.5t29 -24.5t23 -30.5t19 -38t11.5 -45.5t4.5 -54.5v-713q0 -209 112.5 -333t295.5 -124q171 0 271 116.5t100 340.5q0 126 -7 237.5t-22.5 224.5t-44.5 200.5t-69 154t-100 96.5q-43 22 -92 22q-20 0 -40 -3 q67 27 122 29q4 0 7 -1q49 -1 87 -19q40 -20 70 -58.5t49 -91t31 -115.5t18 -132q4 -69 6 -141q1 -44 1 -86v-56q-1 -70 -3 -134q-1 -36 -1.5 -55t-1 -46t-0.5 -48q0 -233 -110 -354t-300 -121q-203 0 -332 131t-129 344v735q0 36 -4.5 67t-9.5 52t-18.5 41t-20 30 t-27.5 24.5t-27 18t-32.5 16.5t-30.5 15z" />
<glyph unicode="V" horiz-adv-x="1255" d="M10 1434h426q-10 -6 -56 -13.5t-74.5 -22t-16.5 -42.5l514 -1266q184 349 289 673q85 261 85 419q0 148 -74 206q-45 36 -118 36q-40 0 -88 -11q106 39 180 40q167 0 166 -202v-17q-10 -302 -379 -1046l-58 -116q-33 -67 -46 -92l-555 1361q-15 38 -55 55.5t-84.5 24 t-55.5 13.5z" />
<glyph unicode="W" horiz-adv-x="1824" d="M10 1434h426q-10 -6 -56 -13.5t-74.5 -22t-16.5 -42.5l514 -1266q153 291 252 567l-113 279q-57 140 -57 252q0 49 11 93q36 143 177 171q24 5 45 5q127 0 129 -178v-11q0 -193 -133 -537l260 -641q199 379 302 704q72 230 72 373q0 169 -100 217q-38 18 -90 18 q-41 0 -90 -11q107 40 181 40q165 0 165 -197v-18q-11 -284 -354 -977q-25 -52 -71 -143q-43 -85 -58 -116l-264 649q-39 -92 -88 -198.5t-83 -176.5t-79 -160l-57 -114l-555 1361q-15 38 -55 55.5t-84.5 24t-55.5 13.5zM1038 918l62 -148q80 253 80 435q0 26 -2 50 q-11 167 -98 180q-19 3 -42 -3q-96 -24 -96 -152t96 -362z" />
<glyph unicode="X" horiz-adv-x="1165" d="M10 1434h346q-8 -5 -42.5 -10t-55 -14t-10.5 -26l364 -628q9 11 28 33q64 76 96.5 114.5t81.5 103t72.5 105.5t42.5 88.5t19 85.5q0 74 -59 112q-47 31 -124 31q-20 0 -42 -2q101 27 167 27q36 0 62 -8q72 -23 72 -103q0 -25 -6.5 -53t-22.5 -60t-31 -59t-45 -66.5 t-49.5 -65.5t-59.5 -71.5t-61.5 -69.5t-68 -76t-66.5 -74l398 -687q13 -21 43.5 -32.5t63 -17.5t40.5 -11h-342q8 5 42 11t53.5 16.5t7.5 31.5l-365 629q-37 -42 -108.5 -118t-112 -122.5t-87.5 -106t-69 -108.5t-22 -90q0 -69 60 -107q47 -30 122 -31q20 0 43 3 q-103 -28 -169 -28q-35 0 -60 8q-72 22 -72 98q0 46 26 101t80.5 120.5t104 119t131 137t127.5 134.5l-395 678q-15 26 -81 41.5t-67 16.5z" />
<glyph unicode="Y" horiz-adv-x="1103" d="M10 1434h426q-10 -6 -56.5 -14.5t-75 -23t-15.5 -40.5l434 -879q170 324 231 477q75 188 75 302q0 123 -88 158q-38 15 -93 15q-56 0 -129 -16q140 52 227 52q147 0 147 -146q0 -166 -213 -573q-32 -62 -95 -178q-40 -74 -58 -107v-393q0 -30 24 -43t58.5 -16.5 t42.5 -8.5h-332q8 5 42.5 8.5t58.5 16.5t24 43v381l-440 892q-18 37 -58 54.5t-83 24.5t-54 14z" />
<glyph unicode="Z" horiz-adv-x="1064" d="M41 1233q0 104 109 162q97 52 267 52q20 0 42 -1l571 -21l-883 -1409l361 -12q18 -1 35 0q191 0 297 70q116 77 116 207q0 72 -34 120t-86 48q103 0 163 -51t60 -140q1 -124 -115 -200q-107 -70 -276 -70h-27l-582 20l883 1409l-350 13q-22 1 -43 1q-181 0 -284 -54 q-115 -60 -115 -171q0 -62 32 -105.5t82 -43.5q-103 0 -163 49t-60 127z" />
<glyph unicode="[" horiz-adv-x="425" d="M41 1468h342v-10h-260v-1716h262v-10h-342z" />
<glyph unicode="\" horiz-adv-x="653" d="M41 1434h33l538 -1434h-32z" />
<glyph unicode="]" horiz-adv-x="425" d="M41 -258h262v1716h-260v10h342l-2 -1736h-342v10z" />
<glyph unicode="^" horiz-adv-x="712" d="M41 844l311 692h8l312 -692l-29 -13l-287 637l-286 -637z" />
<glyph unicode="_" horiz-adv-x="815" d="M41 0h733v-27h-733v27z" />
<glyph unicode="`" horiz-adv-x="444" d="M57 1413l129 41l201 -256l-2 -2z" />
<glyph unicode="a" horiz-adv-x="915" d="M43 270v6q0 128 78 206q80 80 213 81q85 0 174.5 -31.5t161.5 -87.5v230q0 174 -13 233q-16 76 -63 107q-26 18 -60 20q-5 0 -11 1q-27 0 -55 -11q-32 -13 -59.5 -37t-44 -62.5t-16.5 -82.5q0 -64 32 -107t81 -43q-88 0 -138.5 42.5t-50.5 117.5q0 84 60.5 138t163.5 54 q64 0 116 -28q66 -40 103 -127.5t37 -206.5v-723q-3 27 -17 42.5t-28 20.5t-25.5 20t-11.5 40v6q-66 -50 -156.5 -79t-179.5 -29q-130 0 -209.5 79.5t-81.5 210.5zM129 285q1 -129 71 -207t182 -78h3q69 1 149.5 30.5t135.5 69.5v330q-68 54 -149 85.5t-154 31.5 q-108 0 -173 -70t-65 -192z" />
<glyph unicode="b" horiz-adv-x="1021" d="M20 1536q10 -4 32 -11t34.5 -11.5t33.5 -13t34 -16t31 -19.5t29 -24.5t23 -30.5t19 -38t11.5 -45.5t4.5 -54.5v-418q54 91 135.5 140.5t180.5 49.5q175 0 284 -147.5t109 -384.5q0 -242 -117.5 -387t-328.5 -145q-62 0 -120.5 23t-110 69t-83 128.5t-31.5 190.5v881 q0 36 -4.5 67t-9.5 52t-18.5 41t-20 30t-27.5 24.5t-27 18t-32.5 16.5t-30.5 15zM272 453q0 -100 18.5 -179.5t49.5 -130.5t73 -85q41 -33 87 -47q42 -13 89 -13h7q134 2 224.5 108t90.5 285q0 282 -97 459.5t-251 177.5q-87 0 -167.5 -56t-123.5 -143v-376z" />
<glyph unicode="c" horiz-adv-x="831" d="M41 512q0 234 107 383t274 149q105 0 173.5 -56t68.5 -142q0 -71 -51 -112.5t-138 -41.5q49 0 81 44.5t32 113.5q0 85 -47.5 131.5t-132.5 46.5q-134 0 -214.5 -112.5t-80.5 -301.5q0 -278 97.5 -452t252.5 -174q104 0 170.5 77t66.5 197q0 78 -28.5 127.5t-75.5 52.5 q8 1 15 1q65 0 109 -48q50 -53 50 -139q0 -119 -92.5 -200t-228.5 -81q-184 0 -296 149t-112 388z" />
<glyph unicode="d" horiz-adv-x="995" d="M41 512q0 238 109 385t286 147q98 0 179 -49.5t135 -140.5v416q0 36 -4.5 67t-9.5 52t-18.5 41t-20 30t-27.5 24.5t-27 18t-32.5 16.5t-30.5 15q7 -3 39.5 -14t44.5 -15.5t40.5 -17.5t41 -24t32.5 -31.5t29 -42t16.5 -52.5t7.5 -67v-860q0 -93 -21 -168t-55 -123 t-79.5 -80t-92.5 -45.5t-96 -13.5q-211 0 -328.5 145t-117.5 387zM111 391q0 -179 90.5 -285t224.5 -108h7q51 0 95 13q46 14 88 48t71 87t46 135.5t17 189.5v358q-43 87 -123.5 143t-165.5 56q-155 0 -252.5 -177t-97.5 -460z" />
<glyph unicode="e" horiz-adv-x="829" d="M41 512q0 238 109 385t286 147q130 0 221 -86q88 -83 88 -196v-8q-2 -71 -41 -119.5t-98 -68.5q-60 -18 -133 -20q-6 0 -12 -1q-67 0 -130 16q-69 17 -127 49t-87 72q-4 -46 -4 -68q0 -279 98 -453q97 -173 254 -173h2q104 1 167.5 77t63.5 195q0 80 -28.5 129.5 t-75.5 52.5q8 1 15 1q65 0 109 -48q50 -53 50 -139q0 -119 -93 -200t-229 -81q-182 0 -293.5 149t-111.5 388zM117 698q28 -39 81.5 -70t115.5 -48q57 -16 116 -16h11q65 2 116.5 22t82.5 70q27 43 27 102q0 10 -1 20q-7 107 -80 178.5t-174 71.5q-120 0 -199 -88.5 t-96 -241.5z" />
<glyph unicode="f" horiz-adv-x="851" d="M41 0q8 5 42.5 8.5t58.5 16.5t24 43v886h-125q10 6 44 9.5t57.5 16t23.5 42.5v178q0 152 91 243t237 93h7q135 0 221 -79q89 -81 89 -210q0 -83 -50 -130.5t-138 -47.5q54 0 83 48.5t29 127.5q0 121 -79 199q-77 76 -193 76h-6q-109 -1 -159 -78.5t-50 -241.5v-223 l399 -10l-399 -9v-890q0 -30 24 -43t58.5 -16.5t42.5 -8.5h-332z" />
<glyph unicode="g" horiz-adv-x="927" d="M92 -225q0 83 50.5 130.5t138.5 47.5q-54 0 -83.5 -48.5t-29.5 -127.5q0 -120 75 -197.5t220 -77.5q139 0 231 68.5t92 173.5v10q0 66 -37 120t-96 89.5t-130 65.5t-142 55.5t-129 51.5t-94 62q-35 34 -35 76q0 47 39 82q38 32 96 35q-104 99 -104 289q0 163 83 265 t216 102q56 0 110 -23q0 70 41 121t109 51q46 0 75 -25t29 -63q0 -37 -26 -74t-70 -55q39 31 39 92q0 47 -22.5 71.5t-55.5 24.5q-44 0 -78 -40q-31 -37 -31 -96v-11q84 -38 131.5 -128t47.5 -212q0 -163 -83 -265t-216 -102q-111 0 -187 70q-37 0 -57.5 -20.5t-20.5 -49.5 q0 -37 37.5 -68t97 -56t132 -51t145 -59t132 -72.5t97 -99t37.5 -132.5q0 -125 -101.5 -206t-270.5 -81t-285.5 80t-116.5 207zM231 750q0 -192 67 -310q65 -116 173 -116h2q92 2 147.5 74t55.5 198q0 195 -67 317.5t-173 122.5q-90 0 -147.5 -78.5t-57.5 -207.5z" />
<glyph unicode="h" horiz-adv-x="1048" d="M41 1536q10 -4 32 -11t34.5 -11.5t33.5 -13t34 -16t31 -19.5t29 -24.5t23 -30.5t19 -38t11.5 -45.5t4.5 -54.5v-490q14 39 43 81.5t70.5 84.5t100 69t120.5 27q120 0 189 -97t69 -265v-723q-3 27 -17 43t-28 21t-25.5 21.5t-11.5 45.5v584q0 166 -50.5 245.5t-154.5 79.5 q-55 0 -105.5 -21.5t-85.5 -53.5t-61.5 -68.5t-39.5 -67.5t-13 -49v-671q0 -30 24 -43t58.5 -17t42.5 -8h-332q8 5 42.5 8.5t58.5 16.5t24 43v1204q0 36 -4.5 67t-9.5 52t-18.5 41t-20 30t-27.5 24.5t-27 18t-32.5 16.5t-30.5 15z" />
<glyph unicode="i" horiz-adv-x="487" d="M41 1044q10 -4 32 -11t34.5 -11.5t33.5 -13t34 -16t31 -19.5t29 -24.5t23 -30.5t19 -38t11.5 -45.5t4.5 -54.5v-712q0 -30 24 -43t58.5 -17t42.5 -8h-332q8 5 42.5 8.5t58.5 16.5t24 43v712q0 36 -4.5 67t-9.5 52t-18.5 41t-20 30t-27.5 24.5t-27 18t-32.5 16.5t-30.5 15 zM124 1260v8q0 34 34 55q20 11 37 11q24 0 41 -23q12 -16 14.5 -42t1 -47.5t11 -43t42.5 -31.5q-80 20 -135 51q-42 22 -46 62z" />
<glyph unicode="j" horiz-adv-x="882" d="M61 -223q0 83 50.5 130.5t138.5 47.5q-54 0 -83.5 -48.5t-29.5 -127.5q0 -121 79 -199q78 -76 194 -76h6q109 1 159 78.5t50 241.5v956q0 36 -4.5 67t-9.5 52t-18.5 41t-20 30t-27.5 24.5t-27 18t-32.5 16.5t-30.5 15q10 -4 32 -11t34.5 -11.5t33.5 -13t34 -16t31 -19.5 t29 -24.5t23 -30.5t19 -38t11.5 -45.5t4.5 -54.5v-956q0 -152 -91 -243t-237 -93h-7q-135 0 -222 79q-89 81 -89 210zM538 1260q-1 5 -1 9q0 33 34 54q20 11 37 11q24 0 41 -23q12 -16 14.5 -42t1.5 -47.5t11.5 -43t42.5 -31.5q-80 20 -135 51q-42 23 -46 62z" />
<glyph unicode="k" horiz-adv-x="1013" d="M41 1536q10 -4 32 -11t34.5 -11.5t33.5 -13t34 -16t31 -19.5t29 -24.5t23 -30.5t19 -38t11.5 -45.5t4.5 -54.5v-760q158 69 292 215q112 121 131 210q3 14 3 26q0 52 -61 56q-26 1 -60 -7q85 30 133 30q55 0 64 -38q2 -8 2 -17q0 -61 -90 -169q-119 -143 -295 -253 q-9 -6 -19 -12q59 0 110 -29.5t89 -76.5t72.5 -104t68.5 -115t69 -107t80.5 -82.5t96.5 -38.5q-86 0 -153 28.5t-109 74t-74.5 101.5t-58.5 113t-52.5 106t-64.5 83t-86 41q-73 -40 -88 -47v-432q0 -30 24 -43t58.5 -17t42.5 -8h-332q8 5 42.5 8.5t58.5 16.5t24 43v1204 q0 36 -4.5 67t-9.5 52t-18.5 41t-20 30t-27.5 24.5t-27 18t-32.5 16.5t-30.5 15zM979 0h25h-21h-4z" />
<glyph unicode="l" horiz-adv-x="477" d="M31 1534q10 -4 32 -11t34.5 -11.5t33.5 -13t34 -16t31 -19.5t29 -24.5t23 -30.5t19 -38t11.5 -45.5t4.5 -54.5v-1311q-3 27 -17 43t-28 21t-25.5 21.5t-11.5 45.5v1180q0 36 -4.5 67t-9.5 52t-18.5 41t-20 30t-27.5 24.5t-27 18t-32.5 16.5t-30.5 15z" />
<glyph unicode="m" horiz-adv-x="1503" d="M41 1044q8 -3 40 -13.5t44 -15.5t40 -18t41 -24t33 -30.5t29 -41t17 -51.5t8 -66q14 39 40 81t63.5 83.5t90 68.5t107.5 27q82 0 140 -57.5t83 -159.5q19 38 46 74t62.5 69.5t81.5 53.5t93 20q109 0 174 -99t65 -263v-723q-3 27 -17 43t-28 21t-25.5 21.5t-11.5 45.5v584 q0 325 -186 325q-84 0 -149.5 -57t-100.5 -131q13 -63 13 -129v-614q0 -30 24 -43t58 -17t42 -8h-331q8 5 42.5 8.5t58.5 16.5t24 43v606q0 325 -187 325q-59 0 -113.5 -32.5t-87 -76.5t-52 -85.5t-19.5 -65.5v-671q0 -30 24 -43t58.5 -17t42.5 -8h-332q8 5 42.5 8.5 t58.5 16.5t24 43v712q0 36 -4.5 67t-9.5 52t-18.5 41t-20 30t-27.5 24.5t-27 18t-32.5 16.5t-30.5 15z" />
<glyph unicode="n" horiz-adv-x="1048" d="M41 1044q7 -3 39.5 -13.5t44.5 -15.5t40.5 -18t41 -24t32.5 -31t29 -41.5t17 -52t8 -66.5q14 39 43 81.5t70.5 84.5t100 69t120.5 27q120 0 189 -97t69 -265v-723q-3 27 -17 43t-28 21t-25.5 21.5t-11.5 45.5v584q0 166 -50.5 245.5t-154.5 79.5q-55 0 -105.5 -21.5 t-85.5 -53.5t-61.5 -68.5t-39.5 -67.5t-13 -49v-671q0 -30 24 -43t58.5 -17t42.5 -8h-332q8 5 42.5 8.5t58.5 16.5t24 43v712q0 36 -4.5 67t-9.5 52t-18.5 41t-20 30t-27.5 24.5t-27 18t-32.5 16.5t-30.5 15z" />
<glyph unicode="o" horiz-adv-x="872" d="M41 512q0 238 109 385t286 147t286 -147t109 -385t-109 -385t-286 -147t-286 147t-109 385zM113 614q0 -278 97 -448q96 -169 253 -168h2q134 2 215.5 106.5t81.5 286.5q0 283 -97.5 460t-252.5 177q-131 0 -215 -113.5t-84 -300.5z" />
<glyph unicode="p" horiz-adv-x="995" d="M164 -248v862q0 93 21 168t55 123t79.5 80t92.5 45.5t96 13.5q211 0 328.5 -145t117.5 -387q0 -238 -109 -385t-286 -147q-98 0 -178.5 49.5t-134.5 140.5v-418q0 -36 4.5 -67t9.5 -52t18.5 -41t20 -30t27.5 -24.5t27 -18t32.5 -16.5t30.5 -15q-10 4 -32 11t-34.5 11.5 t-33.5 13t-34 16t-31 19.5t-29 24.5t-23 30.5t-19 38t-11.5 45.5t-4.5 54.5zM246 195q43 -87 123.5 -143t165.5 -56q155 0 252.5 177t97.5 460q0 179 -91 285t-225 108h-6q-66 0 -119 -22q-56 -24 -102 -76t-71 -147.5t-25 -227.5v-358z" />
<glyph unicode="q" horiz-adv-x="1021" d="M41 510q0 242 117.5 387t328.5 145q49 0 96 -13.5t92.5 -45t79.5 -77.5t55 -117t21 -158v-879q0 -36 4.5 -67t9.5 -52t18.5 -41t20 -30t27.5 -24.5t27 -18t32.5 -16.5t30.5 -15q-7 3 -39.5 14t-44.5 15.5t-40.5 17.5t-41 24t-32.5 31.5t-29 42t-16.5 52.5t-7.5 67v416 q-54 -91 -135 -141t-179 -50q-177 0 -286 147.5t-109 385.5zM111 631q0 -283 97.5 -460t252.5 -177q85 0 165.5 56t123.5 143v376q0 100 -18.5 179.5t-49.5 130.5t-73 84.5t-87 47.5q-43 13 -89 13h-7q-134 -2 -224.5 -108t-90.5 -285z" />
<glyph unicode="r" horiz-adv-x="858" d="M35 1044q10 -3 35.5 -12t38.5 -13.5t37 -14.5t37 -19.5t32 -23.5t29.5 -30.5t21.5 -38t16 -48.5t5 -58q17 61 52.5 116.5t96.5 97t133 42.5h3q96 0 160 -67q64 -68 65 -164q0 -83 -50.5 -130.5t-138.5 -47.5q54 0 83.5 48.5t29.5 127.5q0 99 -46 153q-44 53 -122 52h-6 q-62 -1 -113.5 -33.5t-82 -81t-47.5 -99t-17 -93.5v-639q0 -30 24 -43t58.5 -17t42.5 -8h-332q8 5 42.5 8.5t58.5 16.5t24 43v712q0 36 -4.5 67t-9.5 52t-18.5 41t-20 30t-27.5 24.5t-27 18t-32.5 16.5t-30.5 15z" />
<glyph unicode="s" horiz-adv-x="788" d="M51 172q0 64 43.5 101.5t118.5 37.5q-37 0 -60.5 -34.5t-23.5 -88.5q0 -90 70 -143t192 -53q127 0 196.5 58t69.5 157q0 60 -30 110t-77.5 85t-105 66.5t-115 62.5t-105 64t-77.5 79.5t-30 101.5q0 117 94.5 192.5t239.5 75.5q106 0 176.5 -45.5t70.5 -105.5 q0 -47 -47.5 -67.5t-140.5 -20.5q52 0 82.5 23t30.5 69q0 58 -50 94.5t-145 36.5q-128 0 -186 -54.5t-58 -144.5q0 -54 30 -99t78 -78t105.5 -64t115.5 -63.5t106 -68.5t78 -87.5t30 -112.5q0 -121 -101.5 -200t-271.5 -79q-138 0 -220.5 53t-82.5 142z" />
<glyph unicode="t" horiz-adv-x="612" d="M49 1022q4 4 19 6t34 5t42 14t43.5 29t39.5 55t29 88v-181l264 -14h-264v-664q0 -358 315 -374q-90 0 -159.5 18t-124.5 59t-84 112.5t-29 172.5v674h-125z" />
<glyph unicode="u" horiz-adv-x="1028" d="M20 1046q10 -3 32 -10t34.5 -11.5t33.5 -13.5t34 -16t31 -19.5t28.5 -24.5t23 -30t19.5 -37.5t11.5 -45t4.5 -54.5v-434q0 -166 50.5 -245.5t154.5 -79.5q55 0 105.5 21.5t85.5 53.5t61.5 68.5t39.5 67.5t13 49v497q0 29 -3 54.5t-6.5 45t-11.5 37.5t-14 30t-18.5 24.5 t-20 19t-23 16t-23 13.5t-25.5 12.5t-25 11.5q10 -3 32 -10t34.5 -11.5t33.5 -13.5t34 -16t31 -19.5t28.5 -25t23 -30.5t19.5 -37.5t11.5 -45.5t4.5 -55v-823q-3 27 -17 43t-28 21t-25.5 21.5t-11.5 45.5v152q-14 -39 -42.5 -81.5t-70 -84.5t-100 -69t-120.5 -27 q-120 0 -189.5 97.5t-69.5 264.5v440q0 29 -3 54.5t-6.5 45t-11.5 37.5t-14 30t-18.5 24.5t-20 19t-23 16t-23 13.5t-25.5 12t-25 12z" />
<glyph unicode="v" horiz-adv-x="964" d="M10 1024h332q-8 -4 -41 -9.5t-53 -15.5t-12 -30l358 -883q11 26 36 84q141 325 184 481q32 117 32 194q0 157 -131 157h-1q-30 -1 -67 -9q90 32 150 32q125 0 125 -138q0 -113 -83 -317q-66 -164 -226 -467l-64 -123l-399 978q-11 27 -39.5 39.5t-60.5 17t-40 9.5z" />
<glyph unicode="w" horiz-adv-x="1447" d="M10 1024h332q-8 -4 -41 -9.5t-53 -15.5t-12 -30l358 -883q11 26 36 84q141 325 184 481q32 117 32 194q0 157 -131 157h-1q-30 -1 -67 -9q79 29 135 33q9 1 18 1q44 1 70 -17q30 -20 44 -56q10 -26 9 -62q0 -13 -1 -28q-5 -54 -20.5 -113t-41.5 -130l217 -535 q11 26 36 84q141 325 184 481q32 117 32 194q0 157 -131 157h-1q-30 -1 -67 -9q90 32 150 32q125 0 125 -138q0 -112 -82 -316q-66 -163 -238 -488q-38 -73 -53 -103l-217 532q-41 -94 -95 -201.5t-105 -204t-66 -126.5l-399 978q-11 27 -39.5 39.5t-60.5 17t-40 9.5z" />
<glyph unicode="x" horiz-adv-x="940" d="M10 1024h332q-8 -4 -42.5 -10t-54.5 -16.5t-9 -28.5l256 -428q125 111 203 248q56 98 56 156q0 27 -12 46q-19 28 -68 28q-25 0 -57 -7q105 37 163 36q72 0 72 -56q0 -89 -165 -275q-85 -96 -186 -185l282 -471q15 -23 46 -34.5t63.5 -16.5t40.5 -10h-332q8 4 39.5 11 t49.5 16.5t9 25.5l-260 430q-122 -111 -197 -248q-51 -93 -51 -150q0 -29 14 -48q20 -28 69 -28q25 0 57 7q-101 -36 -158 -36q-72 0 -73 58q0 87 148 263q84 99 187 191l-282 466q-15 24 -43.5 36.5t-58.5 18.5t-38 11z" />
<glyph unicode="y" horiz-adv-x="964" d="M10 -354q0 78 51 125t138 47q-54 0 -83.5 -47t-29.5 -119t30 -112t82 -40h3q22 0 40.5 6.5t37 24.5t31.5 33t32.5 49.5t30.5 55t35.5 70t37.5 75.5q3 6 39 76t56 110l-391 958q-11 27 -39.5 39.5t-60.5 17t-40 9.5h332q-8 -4 -41 -9.5t-53 -15.5t-12 -30l354 -871 q249 520 249 741q0 85 -37 126q-32 36 -93 36q-28 0 -62 -8q90 33 150 33q126 0 126 -141q0 -193 -239 -652q-33 -63 -90 -168q-33 -63 -45 -85l-90 -173q-18 -32 -43.5 -83t-40 -78.5t-38 -62.5t-44.5 -53t-52 -31.5t-67 -14.5h-3q-73 0 -117 44t-44 118z" />
<glyph unicode="z" horiz-adv-x="880" d="M61 37l611 962l-178 13q-30 2 -57 2q-132 0 -201 -48q-84 -58 -84 -171q0 -70 29.5 -116t82.5 -46q-87 0 -137.5 46t-50.5 122q0 110 100 187q77 59 190 59q34 0 70 -5l240 -34l94 -4l-614 -973q39 -7 81.5 -12t94.5 -7q33 -2 65 -2h38q50 2 101 9.5t93 21t75 37.5t51 56 t18 77q0 48 -23 106q70 -109 70 -183q0 -124 -198 -148q-42 -5 -95 -5q-166 0 -436 50q-21 4 -30 6z" />
<glyph unicode="{" horiz-adv-x="612" d="M41 600q0 20 7 34.5t20 14.5q14 0 31 -19.5t24 -19.5q52 0 91.5 48t58 120.5t18.5 155.5v299q0 114 35 174.5t118 60.5h127v-10h-71q-73 0 -100 -51t-27 -166v-321q0 -60 -7 -104t-26 -88t-58.5 -75.5t-99.5 -50.5q60 -19 99.5 -51t58.5 -77t26 -89t7 -104v-322 q0 -115 27 -166t100 -51h71v-10h-127q-83 0 -118 60.5t-35 174.5v299q0 83 -18.5 155.5t-58 120.5t-91.5 48q-7 0 -24 -19.5t-31 -19.5q-13 0 -20 14.5t-7 34.5z" />
<glyph unicode="|" horiz-adv-x="114" d="M41 -377v1917h33v-1917h-33z" />
<glyph unicode="}" horiz-adv-x="612" d="M41 -258h72q73 0 100 51t27 166v322q0 48 3.5 84t15.5 75t32.5 67.5t55.5 54t83 40.5q-48 15 -83 40t-55.5 53t-32.5 67t-15.5 75t-3.5 83v321q0 115 -27 166t-100 51h-72v10h127q83 0 118.5 -61t35.5 -174v-299q0 -131 45 -227.5t122 -96.5q7 0 24.5 19.5t31.5 19.5 q26 0 26 -49t-26 -49q-14 0 -31.5 19.5t-24.5 19.5q-77 0 -122 -96.5t-45 -227.5v-299q0 -113 -35.5 -174t-118.5 -61h-127v10z" />
<glyph unicode="~" horiz-adv-x="1009" d="M41 479q58 69 130.5 112.5t133.5 43.5q49 0 105 -23.5t98.5 -51.5t96.5 -51.5t100 -23.5q140 0 239 142l25 -17q-105 -155 -264 -155q-49 0 -105 23.5t-98.5 51t-96.5 51t-100 23.5q-52 0 -118.5 -40t-120.5 -105z" />
<glyph unicode="&#xa1;" horiz-adv-x="215" d="M41 967q0 28 20 47.5t48 19.5q26 0 45.5 -19.5t19.5 -47.5q0 -25 -19.5 -44.5t-45.5 -19.5q-27 0 -47.5 19.5t-20.5 44.5zM57 -410l45 1225h13l45 -1225h-103z" />
<glyph unicode="&#xa2;" horiz-adv-x="811" d="M41 512q0 228 100 374.5t258 157.5v220h33v-220q101 -3 166.5 -58.5t65.5 -139.5q0 -71 -51 -112.5t-138 -41.5q49 0 81 44.5t32 113.5q0 77 -40.5 123t-115.5 53v-1036q10 -2 31 -2q104 2 170.5 78t66.5 196q0 78 -28.5 127.5t-75.5 52.5q75 6 124.5 -47t49.5 -139 q0 -89 -50.5 -154.5t-125.5 -96t-162 -30.5v-256h-33v258q-163 22 -260.5 168t-97.5 367zM113 614q0 -248 78 -416t208 -202v1032q-63 -1 -113 -26.5t-81.5 -66.5t-53 -96t-30 -110.5t-8.5 -114.5z" />
<glyph unicode="&#xa3;" horiz-adv-x="1114" d="M41 608v27h182q-24 73 -38 120.5t-26 114t-12 125.5q0 110 37 199t100 145t144.5 85.5t173.5 29.5q129 0 215 -52t86 -130q0 -66 -66.5 -94.5t-193.5 -28.5q71 0 113.5 31t42.5 92q0 77 -68.5 118.5t-177.5 41.5q-158 0 -241 -92t-83 -269q0 -71 16 -156.5t29.5 -132 t44.5 -147.5h261v-27h-252q20 -62 32 -105t24.5 -99.5t14 -102.5t-3 -97.5t-23 -101t-48.5 -96.5l274 -16q178 -10 288.5 69.5t110.5 210.5q0 70 -29.5 116t-82.5 46q87 0 137.5 -45.5t50.5 -118.5q0 -139 -127.5 -219.5t-335.5 -68.5l-336 20h-36q23 32 38.5 66t25.5 63 t12 67.5t3 64.5t-7 69.5t-13 66.5t-20 71t-21.5 68t-24.5 72h-190z" />
<glyph unicode="&#xa4;" horiz-adv-x="1284" d="M41 209q88 11 203 145q40 115 61.5 225.5t26.5 193t7.5 156t11.5 141.5t30 122q23 58 73.5 96.5t105.5 51t112 16.5t94 -6q93 -15 262.5 -65t214.5 -54q-78 -29 -157.5 -96t-146.5 -149t-134 -174.5t-130 -178t-124 -154.5t-125.5 -109t-124.5 -36q-133 -147 -260 -125z M297 420q59 79 132 197t130.5 216.5t115 190t105.5 142t82 46.5q-42 -9 -92 -75t-102 -167.5t-106 -210.5t-121.5 -225.5t-129.5 -189.5q64 13 125 60.5t113.5 116t105 150t108.5 166.5t115 160t134.5 136.5t156.5 91.5q-52 13 -193 58t-228 60q-60 11 -119 -0.5t-116.5 -57 t-88.5 -122.5q-25 -67 -37.5 -155.5t-15.5 -167.5t-21 -194.5t-53 -225.5z" />
<glyph unicode="&#xa5;" d="M41 1434h426q-10 -6 -56 -14.5t-74.5 -23t-17.5 -40.5l365 -856q46 87 78.5 152.5t75 156t66 158t45 143.5t19 129.5t-18.5 99t-61 68.5t-114 23q-61 0 -133 -17q140 53 231 53q248 0 94 -409q-61 -162 -233 -489q-31 -59 -45 -85v-112h225v-27h-225v-145h225v-27h-225 v-104q0 -30 24 -43t58.5 -16.5t42.5 -8.5h-332q8 5 42.5 8.5t58.5 16.5t24 43v104h-231v27h231v145h-231v27h231v110l-370 860q-16 37 -56 54.5t-84 24.5t-55 14z" />
<glyph unicode="&#xa6;" horiz-adv-x="114" d="M41 -377v789h33v-789h-33zM41 752v788h33v-788h-33z" />
<glyph unicode="&#xa7;" horiz-adv-x="757" d="M41 172q0 64 43.5 101.5t118.5 37.5q-37 0 -60.5 -34.5t-23.5 -88.5q0 -90 70 -143t192 -53q127 0 196.5 58t69.5 157q0 64 -32 115t-83.5 85t-113 63.5t-123.5 58t-113.5 60.5t-83.5 79.5t-32 107.5q0 89 66 157.5t175 96.5q-56 26 -92.5 47t-74 52t-56 69.5t-18.5 85.5 q0 115 105 191.5t261 76.5q107 0 181.5 -37t74.5 -96q0 -86 -188 -86q51 0 81.5 22.5t30.5 65.5q0 57 -52.5 86t-147.5 29q-129 0 -204 -52.5t-75 -144.5q0 -52 25 -94.5t66 -71.5t93.5 -57.5t107.5 -51t107.5 -52.5t93.5 -62t66 -80t25 -106q0 -86 -52.5 -153t-146.5 -99 q94 -49 146.5 -108.5t52.5 -147.5q0 -121 -101.5 -200t-271.5 -79q-138 0 -220.5 53t-82.5 142zM133 827q0 -41 17.5 -76.5t41.5 -60t66.5 -50.5t76 -41.5t88.5 -40.5t85 -40q68 23 103.5 74t35.5 121q0 47 -20 89t-43 68.5t-74.5 58.5t-79 45.5t-91.5 42.5q-10 5 -15 7 q-191 -51 -191 -197z" />
<glyph unicode="&#xa8;" horiz-adv-x="456" d="M-4 1313q0 26 20.5 45.5t49.5 19.5q25 0 45 -19.5t20 -45.5q0 -28 -20 -49t-45 -21q-29 0 -49.5 21t-20.5 49zM326 1313q0 26 19.5 45.5t47.5 19.5q27 0 47.5 -19.5t20.5 -45.5q0 -28 -21 -49t-47 -21q-27 0 -47 21t-20 49z" />
<glyph unicode="&#xa9;" horiz-adv-x="1388" d="M41 719q0 330 181 532.5t472 202.5q192 0 340.5 -91t231 -259t82.5 -387q0 -331 -181 -534t-471 -203q-291 0 -473 203.5t-182 535.5zM115 791q0 -223 81.5 -403t226.5 -282t325 -102q108 0 203 39.5t169.5 116t118 201.5t43.5 284q0 167 -47.5 313t-130 250t-200.5 164 t-253 60q-109 0 -204.5 -39.5t-170 -116t-118 -201.5t-43.5 -284zM354 735q0 238 93.5 380t250.5 142q98 0 157.5 -54.5t59.5 -143.5q0 -71 -41 -109.5t-120 -38.5q47 0 77.5 44t30.5 110q0 82 -49 129t-135 47q-130 0 -205.5 -108.5t-75.5 -296.5q0 -275 98 -447.5 t255 -169.5q101 1 165 74.5t64 187.5q0 78 -31 128t-82 53q74 6 119 -42t45 -133q0 -120 -87 -199t-218 -79q-172 0 -271.5 141.5t-99.5 384.5z" />
<glyph unicode="&#xab;" horiz-adv-x="604" d="M41 508l348 356l6 -6l-258 -350l258 -348l-6 -6zM209 508l348 356l6 -6l-258 -350l258 -348l-6 -6z" />
<glyph unicode="&#xac;" horiz-adv-x="804" d="M41 674v26h723v-331h-27v305h-696z" />
<glyph unicode="&#xad;" horiz-adv-x="856" d="M82 541v26h733v-26h-733z" />
<glyph unicode="&#xae;" horiz-adv-x="1388" d="M41 727q0 161 48 296.5t133 230t206.5 147.5t265.5 53q292 0 473 -204t181 -543q0 -214 -82.5 -380t-231 -256.5t-340.5 -90.5q-290 0 -471.5 204.5t-181.5 542.5zM115 791q0 -222 81.5 -402.5t224.5 -282.5t320 -102q111 0 207 39.5t171.5 116t119 201.5t43.5 284 q0 167 -47.5 313t-130 250t-199 164t-250.5 60q-111 0 -207 -39.5t-171 -116t-118.5 -201.5t-43.5 -284zM334 1257q7 -2 30 -10t33.5 -12.5t30 -14t30 -20.5t22.5 -26.5t17.5 -36.5t6.5 -47q19 77 81.5 121t149.5 46q117 2 193 -72.5t76 -197.5q0 -112 -63 -191.5 t-161 -113.5q28 -40 72.5 -108t75 -112.5t67 -93t70 -76t63.5 -34.5q2 -2 7 -2h6q-9 0 -13 2q-25 3 -49.5 12t-45.5 21t-44 32t-40.5 37t-39.5 45.5t-36 48t-36 53.5t-33.5 53.5t-34 56t-32.5 53.5q-50 -13 -94 -13q-73 0 -139 27v-373q0 -20 17 -28.5t40.5 -11t28.5 -5.5 h-225q5 3 27.5 5.5t39.5 11t17 28.5v766q0 25 -3 45.5t-6.5 35t-13 28t-14 21t-18.5 17t-18.5 12t-21 11t-20.5 10.5zM504 692q64 -28 135 -28q51 0 94 14q-66 108 -119 165.5t-110 61.5v-213zM504 911q67 -3 131.5 -60.5t136.5 -158.5q79 34 127.5 107.5t48.5 179.5 q0 57 -15 103.5t-39 76.5t-55 50.5t-62 29t-62 8.5q-83 -2 -147 -61.5t-64 -157.5v-117z" />
<glyph unicode="&#xaf;" horiz-adv-x="786" d="M57 1311v30h672v-30h-672z" />
<glyph unicode="&#xb0;" horiz-adv-x="495" d="M41 1225q0 101 61 165t152 64q89 0 145 -64.5t56 -170.5q0 -103 -57 -166.5t-148 -63.5q-93 0 -151 64.5t-58 171.5zM90 1235q0 -106 47 -168.5t127 -62.5q68 0 107 47.5t39 140.5q0 108 -49 179t-123 71q-63 0 -105.5 -53t-42.5 -154z" />
<glyph unicode="&#xb1;" horiz-adv-x="755" d="M41 0v27h674v-27h-674zM41 674v26h321v324h31v-324h322v-26h-322v-324h-31v324h-321z" />
<glyph unicode="&#xb2;" horiz-adv-x="806" d="M322 471q0 85 36 165t93.5 144t126.5 125.5t138.5 120t127 116t93.5 124t36 133.5q0 98 -68 161.5t-190 63.5q-127 0 -202 -72t-75 -192q0 -94 44 -164t104 -70q-101 0 -155 66.5t-54 161.5q0 124 98.5 202t243.5 78q143 0 231 -76t88 -186q0 -66 -35.5 -133t-92.5 -125 t-126.5 -117.5t-139 -120t-127 -121t-95 -132.5t-39.5 -144l334 -6q143 -3 231 58t88 165q0 63 -23.5 101.5t-66.5 38.5q70 0 113 -38.5t43 -103.5q0 -110 -102 -172t-273 -59z" />
<glyph unicode="&#xb3;" horiz-adv-x="798" d="M322 727q0 94 53.5 146.5t134.5 52.5q-49 0 -88 -53t-39 -144q0 -68 24.5 -120t67 -83t94.5 -46t113 -15q138 0 227.5 77t89.5 214q0 67 -23 125.5t-66.5 105t-115 73.5t-161.5 27h-23v43h23q87 0 154 23t105.5 61t57.5 82.5t19 92.5q0 100 -73 167.5t-183 67.5 q-101 0 -170.5 -59.5t-69.5 -165.5q0 -76 35.5 -131.5t93.5 -55.5q-99 0 -143.5 52.5t-44.5 128.5q0 107 85 174t220 67q143 0 229 -74t86 -178q0 -87 -59 -166t-156 -110q112 -40 179 -124.5t67 -201.5q0 -151 -110 -238t-277 -87q-95 0 -173.5 28t-130.5 91t-52 153z" />
<glyph unicode="&#xb4;" horiz-adv-x="444" d="M57 1198l181 236l149 -21l-328 -217z" />
<glyph unicode="&#xb5;" horiz-adv-x="686" d="M41 0l2 1024h78q4 -555 12 -584q37 -143 170 -143q52 0 94 13t69 35t46.5 44.5t30.5 50t15.5 42t7.5 29.5q1 4 1 5v508h76l2 -727h-80v176q-25 -96 -100.5 -156.5t-190.5 -60.5q-92 0 -153 70v-326h-80z" />
<glyph unicode="&#xb6;" horiz-adv-x="913" d="M41 1149q0 129 88.5 207t237.5 78h505v-1434h-30v1409h-359v-1409h-30v850h-88q-142 0 -233 83t-91 216z" />
<glyph unicode="&#xb7;" horiz-adv-x="215" d="M41 586q0 25 20 44t48 19q26 0 45.5 -19t19.5 -44q0 -28 -19.5 -48t-45.5 -20q-28 0 -48 20t-20 48z" />
<glyph unicode="&#xb8;" horiz-adv-x="423" d="M41 -283q0 45 29.5 72.5t74.5 24.5q-21 -1 -32 -25t-11 -61q0 -53 23 -82t57 -31q52 0 90.5 52.5t38.5 123.5q0 83 -54 134.5t-138 45.5l33 135l79 -16l-24 -110q81 -12 128.5 -59.5t47.5 -121.5q0 -81 -55.5 -137.5t-143.5 -56.5q-63 0 -103 29.5t-40 82.5z" />
<glyph unicode="&#xb9;" horiz-adv-x="440" d="M289 1522v2q15 0 39 27.5t55 55t61 27.5q27 0 40.5 -27t13.5 -94v-989q0 -24 20 -34t47 -13t33 -6h-264q6 3 32.5 6t46 13t19.5 34v961q0 26 -0.5 38t-3.5 27t-10 21t-19 6q-20 0 -55.5 -28.5t-54.5 -26.5z" />
<glyph unicode="&#xbb;" horiz-adv-x="604" d="M41 160l258 348l-258 350l6 6l348 -356l-348 -354zM209 160l258 348l-258 350l6 6l348 -356l-348 -354z" />
<glyph unicode="&#xbc;" horiz-adv-x="1746" d="M289 1522v2q15 0 39 27.5t55 55t61 27.5q27 0 40.5 -27t13.5 -94v-989q0 -24 20 -34t47 -13t33 -6h-264q6 3 32.5 6t46 13t19.5 34v961q0 26 -0.5 38t-3.5 27t-10 21t-19 6q-20 0 -55.5 -28.5t-54.5 -26.5zM481 0l686 1434h33l-686 -1434h-33zM907 106l559 938h66v-929 h113v-9h-113v-155q0 -24 19 -34t47 -13t34 -6h-266q6 3 33 6t47 13t20 34v155h-559zM993 115h473v909z" />
<glyph unicode="&#xbd;" horiz-adv-x="1863" d="M289 1522v2q15 0 39 27.5t55 55t61 27.5q27 0 40.5 -27t13.5 -94v-989q0 -24 20 -34t47 -13t33 -6h-264q6 3 32.5 6t46 13t19.5 34v961q0 26 -0.5 38t-3.5 27t-10 21t-19 6q-20 0 -55.5 -28.5t-54.5 -26.5zM481 0l686 1434h33l-686 -1434h-33zM1047 -102q0 85 36 165 t93.5 144t126.5 125.5t138.5 119.5t127 115.5t93.5 124t36 133.5q0 98 -68 162t-190 64q-127 0 -202 -72.5t-75 -192.5q0 -94 44 -163.5t104 -69.5q-101 0 -155 66t-54 161q0 124 98.5 202.5t243.5 78.5q143 0 231 -76t88 -186q0 -66 -35.5 -133t-92.5 -125t-126.5 -117.5 t-139 -120t-127 -121t-95 -132.5t-39.5 -144l334 -6q143 -3 231 58t88 165q0 63 -23.5 101t-66.5 38q70 0 113 -38t43 -103q0 -110 -102 -172.5t-273 -59.5z" />
<glyph unicode="&#xbe;" horiz-adv-x="2105" d="M322 727q0 94 53.5 146.5t134.5 52.5q-49 0 -88 -53t-39 -144q0 -68 24.5 -120t67 -83t94.5 -46t113 -15q138 0 227.5 77t89.5 214q0 67 -23 125.5t-66.5 105t-115 73.5t-161.5 27h-23v43h23q87 0 154 23t105.5 61t57.5 82.5t19 92.5q0 100 -73 167.5t-183 67.5 q-101 0 -170.5 -59.5t-69.5 -165.5q0 -76 35.5 -131.5t93.5 -55.5q-99 0 -143.5 52.5t-44.5 128.5q0 107 85 174t220 67q143 0 229 -74t86 -178q0 -87 -59 -166t-156 -110q112 -40 179 -124.5t67 -201.5q0 -151 -110 -238t-277 -87q-95 0 -173.5 28t-130.5 91t-52 153z M840 0l686 1434h33l-687 -1434h-32zM1266 106l559 938h65v-929h113v-9h-113v-155q0 -24 19 -34t47.5 -13t34.5 -6h-267q6 3 33.5 6t47.5 13t20 34v155h-559zM1352 115h473v909z" />
<glyph unicode="&#xbf;" horiz-adv-x="825" d="M41 -63q0 69 24 136t63 124t86 114t94.5 115.5t87.5 117.5t67 131t31 146h41q4 -89 -17 -170t-57 -143.5t-80.5 -121t-90 -114t-83 -110.5t-61 -121.5t-23.5 -136.5q0 -138 80.5 -228t206.5 -90q129 0 214 92t85 236q0 117 -55 204t-130 87q126 0 193 -83t67 -202 q0 -154 -105 -252t-261 -98q-163 0 -270 106t-107 261zM449 967q0 28 19.5 47.5t45.5 19.5q28 0 48 -19.5t20 -47.5q0 -25 -20.5 -44.5t-47.5 -19.5q-26 0 -45.5 19.5t-19.5 44.5z" />
<glyph unicode="&#xc0;" horiz-adv-x="1255" d="M8 199q9 301 379 1046q21 42 59 116l46 93l555 -1362q12 -30 40.5 -47.5t56.5 -22.5t57.5 -10t39.5 -12h-426q10 6 56.5 13.5t75 22t16.5 42.5l-514 1265q-102 -194 -199.5 -427.5t-143.5 -430.5q106 -1 198.5 0t205.5 -0.5t192 -5.5l-598 -4q-18 -76 -25 -140t-3.5 -122 t21.5 -99t50.5 -69.5t84 -33t122.5 8.5q-355 -132 -346 179zM311 1765l129 41l201 -256l-2 -2z" />
<glyph unicode="&#xc1;" horiz-adv-x="1255" d="M8 199q9 301 379 1046q21 42 59 116l46 93l555 -1362q12 -30 40.5 -47.5t56.5 -22.5t57.5 -10t39.5 -12h-426q10 6 56.5 13.5t75 22t16.5 42.5l-514 1265q-102 -194 -199.5 -427.5t-143.5 -430.5q106 -1 198.5 0t205.5 -0.5t192 -5.5l-598 -4q-18 -76 -25 -140t-3.5 -122 t21.5 -99t50.5 -69.5t84 -33t122.5 8.5q-355 -132 -346 179zM311 1550l181 236l149 -21l-328 -217z" />
<glyph unicode="&#xc2;" horiz-adv-x="1255" d="M8 199q9 301 379 1046q21 42 59 116l46 93l555 -1362q12 -30 40.5 -47.5t56.5 -22.5t57.5 -10t39.5 -12h-426q10 6 56.5 13.5t75 22t16.5 42.5l-514 1265q-102 -194 -199.5 -427.5t-143.5 -430.5q106 -1 198.5 0t205.5 -0.5t192 -5.5l-598 -4q-18 -76 -25 -140t-3.5 -122 t21.5 -99t50.5 -69.5t84 -33t122.5 8.5q-355 -132 -346 179zM231 1542l246 293l244 -293l-2 -4l-242 176l-241 -176z" />
<glyph unicode="&#xc3;" horiz-adv-x="1255" d="M8 199q9 301 379 1046q21 42 59 116l46 93l555 -1362q12 -30 40.5 -47.5t56.5 -22.5t57.5 -10t39.5 -12h-426q10 6 56.5 13.5t75 22t16.5 42.5l-514 1265q-102 -194 -199.5 -427.5t-143.5 -430.5q106 -1 198.5 0t205.5 -0.5t192 -5.5l-598 -4q-18 -76 -25 -140t-3.5 -122 t21.5 -99t50.5 -69.5t84 -33t122.5 8.5q-355 -132 -346 179zM190 1608q64 99 109.5 138.5t106.5 39.5q35 0 66 -24.5t59.5 -49t56.5 -24.5q51 0 96 28.5t74 75.5l6 -4q-61 -101 -100.5 -139.5t-98.5 -38.5q-27 0 -54.5 16.5t-46.5 36.5t-44 36.5t-49 16.5q-47 0 -86.5 -27 t-87.5 -83z" />
<glyph unicode="&#xc4;" horiz-adv-x="1255" d="M8 199q9 301 379 1046q21 42 59 116l46 93l555 -1362q12 -30 40.5 -47.5t56.5 -22.5t57.5 -10t39.5 -12h-426q10 6 56.5 13.5t75 22t16.5 42.5l-514 1265q-102 -194 -199.5 -427.5t-143.5 -430.5q106 -1 198.5 0t205.5 -0.5t192 -5.5l-598 -4q-18 -76 -25 -140t-3.5 -122 t21.5 -99t50.5 -69.5t84 -33t122.5 8.5q-355 -132 -346 179zM244 1665q0 27 20 46.5t49 19.5q25 0 45.5 -20t20.5 -46q0 -27 -20.5 -48.5t-45.5 -21.5q-29 0 -49 21t-20 49zM573 1665q0 26 20 46t48 20q26 0 47 -20t21 -46q0 -28 -21 -49t-47 -21q-28 0 -48 21t-20 49z" />
<glyph unicode="&#xc5;" horiz-adv-x="1255" d="M8 199q9 301 379 1046q21 42 59 116l46 93l555 -1362q12 -30 40.5 -47.5t56.5 -22.5t57.5 -10t39.5 -12h-426q10 6 56.5 13.5t75 22t16.5 42.5l-514 1265q-102 -194 -199.5 -427.5t-143.5 -430.5q106 -1 198.5 0t205.5 -0.5t192 -5.5l-598 -4q-18 -76 -25 -140t-3.5 -122 t21.5 -99t50.5 -69.5t84 -33t122.5 8.5q-355 -132 -346 179zM297 1645q0 71 55.5 123.5t130.5 52.5q73 0 123.5 -48.5t50.5 -115.5q0 -69 -55.5 -122.5t-130.5 -53.5q-70 0 -122 49t-52 115zM395 1667q0 -75 24 -125.5t64 -50.5q35 0 56.5 38.5t21.5 106.5q0 77 -27 124.5 t-65 47.5q-33 0 -53.5 -37t-20.5 -104z" />
<glyph unicode="&#xc6;" horiz-adv-x="1689" d="M12 104q-4 111 80 303.5t210.5 394.5t233 355.5t185.5 253.5q-49 29 -78 43q9 -3 30.5 -10.5t33.5 -11.5t32.5 -12t33 -15t30.5 -18.5t29 -23.5t23.5 -28.5t20 -34.5t13 -41.5t6.5 -50.5q26 114 115.5 179.5t224.5 66.5q153 1 245.5 -78.5t92.5 -210.5 q0 -83 -50.5 -130.5t-138.5 -47.5q54 0 83.5 48.5t29.5 127.5q0 121 -80.5 198.5t-208.5 76.5q-132 -2 -222.5 -87t-90.5 -233v-440q102 -1 170.5 0t153 -0.5t165.5 -5.5l-489 -4v-658h279q181 0 290 76.5t109 204.5q0 79 -29.5 127.5t-83.5 48.5q88 0 138.5 -47.5 t50.5 -130.5q0 -138 -127 -217t-336 -72h-498q8 5 42.5 8.5t58.5 16.5t24 43v1179q0 36 -28.5 81.5t-57.5 76.5q-109 -146 -276.5 -416.5t-266.5 -503.5q101 -1 181 0t178 -0.5t174 -5.5l-537 -4q-82 -202 -82 -319q0 -88 49 -124.5t162 -11.5q-290 -108 -297 84z" />
<glyph unicode="&#xc7;" horiz-adv-x="1034" d="M41 719q0 336 132 535.5t353 199.5q138 0 223 -76.5t85 -201.5q0 -100 -59 -153.5t-171 -53.5q67 0 110.5 61t43.5 154q0 116 -69.5 182t-190.5 66q-183 0 -289.5 -153.5t-106.5 -418.5q0 -254 61.5 -452.5t175 -308.5t259.5 -107q143 3 234.5 106.5t91.5 263.5 q0 109 -44 179.5t-116 74.5q103 8 166 -59.5t63 -187.5q0 -167 -122 -278t-306 -111q-23 0 -35 2l7 -2l-25 -111q81 -12 128.5 -59t47.5 -121q0 -81 -55.5 -138t-143.5 -57q-63 0 -103 30t-40 83q0 45 30 72t75 24q-21 -1 -32 -25t-11 -61q0 -53 22.5 -82t56.5 -31 q52 0 90.5 53t38.5 124q0 83 -54 134.5t-138 45.5l31 131q-194 43 -304 235t-110 492z" />
<glyph unicode="&#xc8;" horiz-adv-x="1087" d="M41 1454q9 -3 30.5 -10.5t33.5 -11.5t32.5 -12t33 -15t30.5 -18.5t29 -23.5t23.5 -28.5t20 -34.5t13 -41.5t6.5 -50.5q26 114 115.5 179.5t224.5 66.5q153 1 245.5 -78.5t92.5 -210.5q0 -83 -50.5 -130.5t-138.5 -47.5q54 0 83.5 48.5t29.5 127.5q0 121 -80.5 198.5 t-208.5 76.5q-132 -2 -222.5 -87t-90.5 -233v-440q102 -1 170.5 0t153 -0.5t165.5 -5.5l-489 -4v-658h278q181 0 290.5 76.5t109.5 204.5q0 79 -29.5 127.5t-83.5 48.5q88 0 138.5 -47.5t50.5 -130.5q0 -138 -127 -217t-336 -72h-498q8 5 42.5 8.5t58.5 16.5t24 43v1122 q0 36 -4.5 67t-9.5 52t-18.5 41t-20 30t-27.5 24.5t-27 18t-32.5 16.5t-30.5 15zM379 1843l129 41l201 -256l-2 -2z" />
<glyph unicode="&#xc9;" horiz-adv-x="1087" d="M41 1454q9 -3 30.5 -10.5t33.5 -11.5t32.5 -12t33 -15t30.5 -18.5t29 -23.5t23.5 -28.5t20 -34.5t13 -41.5t6.5 -50.5q26 114 115.5 179.5t224.5 66.5q153 1 245.5 -78.5t92.5 -210.5q0 -83 -50.5 -130.5t-138.5 -47.5q54 0 83.5 48.5t29.5 127.5q0 121 -80.5 198.5 t-208.5 76.5q-132 -2 -222.5 -87t-90.5 -233v-440q102 -1 170.5 0t153 -0.5t165.5 -5.5l-489 -4v-658h278q181 0 290.5 76.5t109.5 204.5q0 79 -29.5 127.5t-83.5 48.5q88 0 138.5 -47.5t50.5 -130.5q0 -138 -127 -217t-336 -72h-498q8 5 42.5 8.5t58.5 16.5t24 43v1122 q0 36 -4.5 67t-9.5 52t-18.5 41t-20 30t-27.5 24.5t-27 18t-32.5 16.5t-30.5 15zM379 1628l180 236l150 -21l-328 -217z" />
<glyph unicode="&#xca;" horiz-adv-x="1087" d="M41 1454q9 -3 30.5 -10.5t33.5 -11.5t32.5 -12t33 -15t30.5 -18.5t29 -23.5t23.5 -28.5t20 -34.5t13 -41.5t6.5 -50.5q26 114 115.5 179.5t224.5 66.5q153 1 245.5 -78.5t92.5 -210.5q0 -83 -50.5 -130.5t-138.5 -47.5q54 0 83.5 48.5t29.5 127.5q0 121 -80.5 198.5 t-208.5 76.5q-132 -2 -222.5 -87t-90.5 -233v-440q102 -1 170.5 0t153 -0.5t165.5 -5.5l-489 -4v-658h278q181 0 290.5 76.5t109.5 204.5q0 79 -29.5 127.5t-83.5 48.5q88 0 138.5 -47.5t50.5 -130.5q0 -138 -127 -217t-336 -72h-498q8 5 42.5 8.5t58.5 16.5t24 43v1122 q0 36 -4.5 67t-9.5 52t-18.5 41t-20 30t-27.5 24.5t-27 18t-32.5 16.5t-30.5 15zM299 1620l246 293l243 -293l-2 -4l-241 176l-242 -176z" />
<glyph unicode="&#xcb;" horiz-adv-x="1087" d="M41 1454q9 -3 30.5 -10.5t33.5 -11.5t32.5 -12t33 -15t30.5 -18.5t29 -23.5t23.5 -28.5t20 -34.5t13 -41.5t6.5 -50.5q26 114 115.5 179.5t224.5 66.5q153 1 245.5 -78.5t92.5 -210.5q0 -83 -50.5 -130.5t-138.5 -47.5q54 0 83.5 48.5t29.5 127.5q0 121 -80.5 198.5 t-208.5 76.5q-132 -2 -222.5 -87t-90.5 -233v-440q102 -1 170.5 0t153 -0.5t165.5 -5.5l-489 -4v-658h278q181 0 290.5 76.5t109.5 204.5q0 79 -29.5 127.5t-83.5 48.5q88 0 138.5 -47.5t50.5 -130.5q0 -138 -127 -217t-336 -72h-498q8 5 42.5 8.5t58.5 16.5t24 43v1122 q0 36 -4.5 67t-9.5 52t-18.5 41t-20 30t-27.5 24.5t-27 18t-32.5 16.5t-30.5 15zM311 1743q0 26 20.5 45.5t49.5 19.5q25 0 45 -19.5t20 -45.5q0 -28 -20 -49t-45 -21q-29 0 -49.5 21t-20.5 49zM641 1743q0 26 20 45.5t48 19.5q26 0 46.5 -19.5t20.5 -45.5q0 -28 -20.5 -49 t-46.5 -21q-28 0 -48 21t-20 49z" />
<glyph unicode="&#xcc;" horiz-adv-x="540" d="M41 1454q10 -4 32 -11t34.5 -11.5t33.5 -13t34 -16t31 -19.5t29 -24.5t23 -30.5t19 -38t11.5 -45.5t4.5 -54.5v-1122q0 -30 24 -43t58.5 -16.5t42.5 -8.5h-332q8 5 42.5 8.5t58.5 16.5t24 43v1122q0 36 -4.5 67t-9.5 52t-18.5 41t-20 30t-27.5 24.5t-27 18t-32.5 16.5 t-30.5 15zM104 1806l129 41l201 -256l-2 -2z" />
<glyph unicode="&#xcd;" horiz-adv-x="540" d="M41 1454q10 -4 32 -11t34.5 -11.5t33.5 -13t34 -16t31 -19.5t29 -24.5t23 -30.5t19 -38t11.5 -45.5t4.5 -54.5v-1122q0 -30 24 -43t58.5 -16.5t42.5 -8.5h-332q8 5 42.5 8.5t58.5 16.5t24 43v1122q0 36 -4.5 67t-9.5 52t-18.5 41t-20 30t-27.5 24.5t-27 18t-32.5 16.5 t-30.5 15zM104 1591l181 236l149 -21l-328 -217z" />
<glyph unicode="&#xce;" horiz-adv-x="540" d="M25 1583l245 293l244 -293l-2 -4l-242 176l-241 -176zM41 1454q10 -4 32 -11t34.5 -11.5t33.5 -13t34 -16t31 -19.5t29 -24.5t23 -30.5t19 -38t11.5 -45.5t4.5 -54.5v-1122q0 -30 24 -43t58.5 -16.5t42.5 -8.5h-332q8 5 42.5 8.5t58.5 16.5t24 43v1122q0 36 -4.5 67 t-9.5 52t-18.5 41t-20 30t-27.5 24.5t-27 18t-32.5 16.5t-30.5 15z" />
<glyph unicode="&#xcf;" horiz-adv-x="540" d="M37 1706q0 27 20 46.5t49 19.5q25 0 45.5 -20t20.5 -46q0 -27 -20.5 -48.5t-45.5 -21.5q-29 0 -49 21t-20 49zM41 1454q10 -4 32 -11t34.5 -11.5t33.5 -13t34 -16t31 -19.5t29 -24.5t23 -30.5t19 -38t11.5 -45.5t4.5 -54.5v-1122q0 -30 24 -43t58.5 -16.5t42.5 -8.5h-332 q8 5 42.5 8.5t58.5 16.5t24 43v1122q0 36 -4.5 67t-9.5 52t-18.5 41t-20 30t-27.5 24.5t-27 18t-32.5 16.5t-30.5 15zM367 1706q0 26 19.5 46t47.5 20q26 0 47 -20t21 -46q0 -28 -21 -49t-47 -21q-27 0 -47 21t-20 49z" />
<glyph unicode="&#xd0;" horiz-adv-x="1185" d="M29 674v10h182v506q0 36 -4.5 67t-9.5 52t-18.5 41t-20 30t-27.5 24.5t-27 18t-32.5 16.5t-30.5 15q9 -3 30.5 -10.5t33.5 -11.5t32.5 -12t33 -15t30.5 -18.5t29 -23.5t23.5 -28.5t20 -34.5t13 -41.5t6.5 -50.5q26 113 119.5 178.5t226.5 67.5q229 3 367.5 -185 t138.5 -503q0 -363 -186 -580t-490 -217q-109 0 -176 31h-207q8 5 42.5 8.5t58.5 16.5t24 43v606h-182zM293 10q61 -30 170 -30q272 0 438 205.5t166 549.5q0 202 -59 363.5t-163.5 251.5t-234.5 88q-128 -2 -222.5 -88t-94.5 -232v-434h246v-10h-246v-664z" />
<glyph unicode="&#xd1;" horiz-adv-x="1185" d="M61 1434h189l794 -1276v329q0 126 -7 237.5t-22.5 224.5t-44 200.5t-68.5 154t-99.5 97t-132.5 18.5q67 27 122 28.5t94.5 -19t69.5 -59t49 -91t31 -115.5t17.5 -132t7 -141t0.5 -141.5t-3 -134.5q-1 -36 -1.5 -55t-1 -46t-0.5 -48v-324l2 -161l-860 1384v-424 q0 -126 7 -237.5t22.5 -224.5t44 -200.5t68.5 -154t99.5 -97t132.5 -18.5q-67 -27 -122 -28.5t-94.5 19t-69.5 59t-49 91.5t-31 116t-17.5 132t-7 141t-0.5 141.5t3 134.5q1 36 1.5 55t1 46t0.5 48v403q0 30 -24 43t-58.5 16.5t-42.5 8.5zM307 1665q64 99 109 138.5 t106 39.5q27 0 53.5 -15.5t43.5 -33.5t40 -33.5t46 -15.5q51 0 95.5 28.5t73.5 75.5l7 -4q-61 -101 -100.5 -139.5t-98.5 -38.5q-27 0 -54.5 16.5t-46.5 37t-44.5 37t-49.5 16.5q-47 0 -86 -27.5t-88 -83.5z" />
<glyph unicode="&#xd2;" d="M41 717q0 317 129 520l2 -2q-66 -124 -66 -375q0 -256 58 -450.5t164 -300t245 -103.5q176 3 285 151t109 392q0 258 -58.5 459.5t-164 313.5t-240.5 112q-124 0 -200.5 -75t-76.5 -194q0 -114 69.5 -179.5t172.5 -65.5q113 0 160 77q-34 -68 -86 -105.5t-115 -37.5 q-92 0 -158.5 77.5t-66.5 207.5q0 149 90.5 233t243.5 84q218 0 354.5 -205.5t136.5 -533.5q0 -216 -61.5 -383.5t-173.5 -260.5t-256 -93q-145 0 -258 93t-175.5 261t-62.5 383zM371 1823l129 41l200 -256l-2 -2z" />
<glyph unicode="&#xd3;" d="M41 717q0 317 129 520l2 -2q-66 -124 -66 -375q0 -256 58 -450.5t164 -300t245 -103.5q176 3 285 151t109 392q0 258 -58.5 459.5t-164 313.5t-240.5 112q-124 0 -200.5 -75t-76.5 -194q0 -114 69.5 -179.5t172.5 -65.5q113 0 160 77q-34 -68 -86 -105.5t-115 -37.5 q-92 0 -158.5 77.5t-66.5 207.5q0 149 90.5 233t243.5 84q218 0 354.5 -205.5t136.5 -533.5q0 -216 -61.5 -383.5t-173.5 -260.5t-256 -93q-145 0 -258 93t-175.5 261t-62.5 383zM371 1608l180 235l149 -20l-327 -217z" />
<glyph unicode="&#xd4;" d="M41 717q0 317 129 520l2 -2q-66 -124 -66 -375q0 -256 58 -450.5t164 -300t245 -103.5q176 3 285 151t109 392q0 258 -58.5 459.5t-164 313.5t-240.5 112q-124 0 -200.5 -75t-76.5 -194q0 -114 69.5 -179.5t172.5 -65.5q113 0 160 77q-34 -68 -86 -105.5t-115 -37.5 q-92 0 -158.5 77.5t-66.5 207.5q0 149 90.5 233t243.5 84q218 0 354.5 -205.5t136.5 -533.5q0 -216 -61.5 -383.5t-173.5 -260.5t-256 -93q-145 0 -258 93t-175.5 261t-62.5 383zM291 1599l246 293l243 -293l-2 -4l-241 177l-242 -177z" />
<glyph unicode="&#xd5;" d="M41 717q0 317 129 520l2 -2q-66 -124 -66 -375q0 -256 58 -450.5t164 -300t245 -103.5q176 3 285 151t109 392q0 258 -58.5 459.5t-164 313.5t-240.5 112q-124 0 -200.5 -75t-76.5 -194q0 -114 69.5 -179.5t172.5 -65.5q113 0 160 77q-34 -68 -86 -105.5t-115 -37.5 q-92 0 -158.5 77.5t-66.5 207.5q0 149 90.5 233t243.5 84q218 0 354.5 -205.5t136.5 -533.5q0 -216 -61.5 -383.5t-173.5 -260.5t-256 -93q-145 0 -258 93t-175.5 261t-62.5 383zM250 1665q64 99 109 138.5t106 39.5q35 0 66 -24.5t59.5 -49t56.5 -24.5q51 0 96 28.5 t74 75.5l6 -4q-61 -102 -100 -140t-98 -38q-27 0 -54.5 16.5t-46.5 37t-44.5 37t-49.5 16.5q-47 0 -86 -27.5t-88 -83.5z" />
<glyph unicode="&#xd6;" d="M41 717q0 317 129 520l2 -2q-66 -124 -66 -375q0 -256 58 -450.5t164 -300t245 -103.5q176 3 285 151t109 392q0 258 -58.5 459.5t-164 313.5t-240.5 112q-124 0 -200.5 -75t-76.5 -194q0 -114 69.5 -179.5t172.5 -65.5q113 0 160 77q-34 -68 -86 -105.5t-115 -37.5 q-92 0 -158.5 77.5t-66.5 207.5q0 149 90.5 233t243.5 84q218 0 354.5 -205.5t136.5 -533.5q0 -216 -61.5 -383.5t-173.5 -260.5t-256 -93q-145 0 -258 93t-175.5 261t-62.5 383zM303 1722q0 27 20.5 46.5t49.5 19.5q25 0 45 -20t20 -46q0 -27 -20 -48t-45 -21 q-29 0 -49.5 20.5t-20.5 48.5zM633 1722q0 26 19.5 46t47.5 20q26 0 47 -20t21 -46q0 -28 -21 -48.5t-47 -20.5q-28 0 -47.5 20.5t-19.5 48.5z" />
<glyph unicode="&#xd7;" horiz-adv-x="575" d="M41 459l229 229l-229 227l18 19l230 -227l227 227l19 -19l-228 -227l228 -229l-19 -19l-227 230l-230 -230z" />
<glyph unicode="&#xd8;" d="M41 717q0 329 138 534t358 205q187 0 315 -153l82 153l24 -12l-88 -164q158 -207 158 -563q0 -216 -61.5 -383.5t-173.5 -260.5t-256 -93q-166 0 -291 122l-66 -122l-22 10l69 133q-89 98 -137.5 251t-48.5 343zM106 860q0 -433 158 -670l549 1039q-122 205 -309 205 q-180 0 -289 -157t-109 -417zM281 168q118 -165 292 -162q176 3 285 151t109 392q0 403 -138 653z" />
<glyph unicode="&#xd9;" horiz-adv-x="1191" d="M20 1454q10 -4 32 -11t34.5 -11.5t33.5 -13t34 -16t31 -19.5t29 -24.5t23 -30.5t19 -38t11.5 -45.5t4.5 -54.5v-713q0 -209 112.5 -333t295.5 -124q171 0 271 116.5t100 340.5q0 126 -7 237.5t-22.5 224.5t-44.5 200.5t-69 154t-99.5 97t-132.5 18.5q67 27 122 28.5 t94.5 -19t69.5 -59t49 -91t31 -115.5t17.5 -132t7 -141t0.5 -141.5t-3 -134.5q-1 -36 -1.5 -55t-1 -46t-0.5 -48q0 -233 -110 -354t-300 -121q-203 0 -332 131t-129 344v735q0 36 -4.5 67t-9.5 52t-18.5 41t-20 30t-27.5 24.5t-27 18t-32.5 16.5t-30.5 15zM430 1802l129 41 l201 -256l-2 -2z" />
<glyph unicode="&#xda;" horiz-adv-x="1191" d="M20 1454q10 -4 32 -11t34.5 -11.5t33.5 -13t34 -16t31 -19.5t29 -24.5t23 -30.5t19 -38t11.5 -45.5t4.5 -54.5v-713q0 -209 112.5 -333t295.5 -124q171 0 271 116.5t100 340.5q0 126 -7 237.5t-22.5 224.5t-44.5 200.5t-69 154t-99.5 97t-132.5 18.5q67 27 122 28.5 t94.5 -19t69.5 -59t49 -91t31 -115.5t17.5 -132t7 -141t0.5 -141.5t-3 -134.5q-1 -36 -1.5 -55t-1 -46t-0.5 -48q0 -233 -110 -354t-300 -121q-203 0 -332 131t-129 344v735q0 36 -4.5 67t-9.5 52t-18.5 41t-20 30t-27.5 24.5t-27 18t-32.5 16.5t-30.5 15zM430 1587l180 236 l150 -21l-328 -217z" />
<glyph unicode="&#xdb;" horiz-adv-x="1191" d="M20 1454q10 -4 32 -11t34.5 -11.5t33.5 -13t34 -16t31 -19.5t29 -24.5t23 -30.5t19 -38t11.5 -45.5t4.5 -54.5v-713q0 -209 112.5 -333t295.5 -124q171 0 271 116.5t100 340.5q0 126 -7 237.5t-22.5 224.5t-44.5 200.5t-69 154t-99.5 97t-132.5 18.5q67 27 122 28.5 t94.5 -19t69.5 -59t49 -91t31 -115.5t17.5 -132t7 -141t0.5 -141.5t-3 -134.5q-1 -36 -1.5 -55t-1 -46t-0.5 -48q0 -233 -110 -354t-300 -121q-203 0 -332 131t-129 344v735q0 36 -4.5 67t-9.5 52t-18.5 41t-20 30t-27.5 24.5t-27 18t-32.5 16.5t-30.5 15zM350 1579l246 293 l244 -293l-2 -4l-242 176l-242 -176z" />
<glyph unicode="&#xdc;" horiz-adv-x="1191" d="M20 1454q10 -4 32 -11t34.5 -11.5t33.5 -13t34 -16t31 -19.5t29 -24.5t23 -30.5t19 -38t11.5 -45.5t4.5 -54.5v-713q0 -209 112.5 -333t295.5 -124q171 0 271 116.5t100 340.5q0 126 -7 237.5t-22.5 224.5t-44.5 200.5t-69 154t-99.5 97t-132.5 18.5q67 27 122 28.5 t94.5 -19t69.5 -59t49 -91t31 -115.5t17.5 -132t7 -141t0.5 -141.5t-3 -134.5q-1 -36 -1.5 -55t-1 -46t-0.5 -48q0 -233 -110 -354t-300 -121q-203 0 -332 131t-129 344v735q0 36 -4.5 67t-9.5 52t-18.5 41t-20 30t-27.5 24.5t-27 18t-32.5 16.5t-30.5 15zM362 1702 q0 26 20.5 45.5t49.5 19.5q25 0 45.5 -19.5t20.5 -45.5q0 -27 -20.5 -48.5t-45.5 -21.5q-29 0 -49.5 21t-20.5 49zM692 1702q0 26 20 45.5t48 19.5q26 0 46.5 -19.5t20.5 -45.5q0 -28 -20.5 -49t-46.5 -21q-28 0 -48 21t-20 49z" />
<glyph unicode="&#xdd;" horiz-adv-x="1103" d="M10 1434h426q-10 -6 -56.5 -14.5t-75 -23t-15.5 -40.5l434 -879q170 324 231 477q157 392 -13 460q-78 31 -222 -1q376 139 374 -96q-2 -168 -213 -571q-32 -62 -95 -178q-40 -74 -58 -107v-393q0 -30 24 -43t58.5 -16.5t42.5 -8.5h-332q8 5 42.5 8.5t58.5 16.5t24 43 v381l-440 892q-18 37 -58 54.5t-83 24.5t-54 14zM387 1608l180 235l150 -20l-328 -217z" />
<glyph unicode="&#xde;" horiz-adv-x="1067" d="M41 1538q6 -2 32 -10.5t37 -12.5t36 -14.5t38 -20t33 -24.5t31 -32.5t23 -39.5t17 -50t5 -60v-477q26 110 117 176t219 69q174 5 285.5 -105t111.5 -294q0 -216 -152 -361t-378 -145q-116 0 -203 41v-579q0 -28 24 -41t58.5 -17.5t42.5 -9.5h-332q8 5 42.5 8.5t58.5 16.5 t24 43v1675q0 36 -4.5 67t-9.5 52t-18.5 41t-20 30t-27.5 24.5t-27 18t-32.5 16.5t-30.5 15zM293 188q90 -41 196 -41q198 0 326.5 136.5t128.5 349.5q0 103 -33 182.5t-85.5 124t-110.5 66t-117 20.5q-56 -1 -110 -22.5t-97.5 -60.5t-70.5 -100.5t-27 -135.5v-519z" />
<glyph unicode="&#xdf;" horiz-adv-x="1107" d="M41 0q8 5 42.5 8.5t58.5 16.5t24 43v839q0 126 26.5 224.5t67.5 157.5t96 97.5t106.5 52.5t104.5 15q146 2 254.5 -79t108.5 -197q0 -53 -26.5 -104.5t-64.5 -91.5t-76 -77t-64.5 -75t-26.5 -72q0 -31 22 -55.5t56.5 -42.5t77 -36.5t84.5 -42.5t76.5 -54t56.5 -78 t22 -109q0 -146 -113 -243t-282 -97q-105 0 -164 39t-59 106q0 62 49 97.5t125 29.5q-48 -3 -76.5 -33.5t-28.5 -80.5q0 -66 47.5 -107t126.5 -41q122 0 207.5 93t85.5 225q0 57 -18.5 101t-47.5 71t-64.5 49t-71 40t-64.5 37.5t-47.5 49.5t-18.5 69q0 40 20 79t48.5 72 t57.5 68.5t49 83.5t20 101q0 122 -92.5 206.5t-214.5 82.5q-126 -2 -209.5 -93t-83.5 -227v-1050q0 -30 24 -43t58.5 -16.5t42.5 -8.5h-332z" />
<glyph unicode="&#xe0;" horiz-adv-x="915" d="M43 270q-2 132 78 212.5t213 80.5q85 0 174.5 -31.5t161.5 -87.5v230q0 174 -13 233q-16 76 -63 107q-27 18 -60.5 20.5t-66 -10.5t-59.5 -37t-43.5 -62.5t-16.5 -82.5q0 -64 32 -107t81 -43q-88 0 -138.5 42.5t-50.5 117.5q0 84 60.5 138t163.5 54q64 0 116 -28 q66 -40 103 -127.5t37 -206.5v-723q-3 27 -17 42.5t-28 20.5t-25.5 20t-11.5 40v6q-66 -50 -156.5 -79t-179.5 -29q-130 0 -209.5 79.5t-81.5 210.5zM129 285q0 -129 70.5 -207.5t185.5 -77.5q69 1 149.5 30.5t135.5 69.5v330q-68 54 -149 85.5t-154 31.5q-108 0 -173 -70 t-65 -192zM334 1413l129 41l201 -256l-2 -2z" />
<glyph unicode="&#xe1;" horiz-adv-x="915" d="M43 270q-2 132 78 212.5t213 80.5q85 0 174.5 -31.5t161.5 -87.5v230q0 174 -13 233q-16 76 -63 107q-27 18 -60.5 20.5t-66 -10.5t-59.5 -37t-43.5 -62.5t-16.5 -82.5q0 -64 32 -107t81 -43q-88 0 -138.5 42.5t-50.5 117.5q0 84 60.5 138t163.5 54q64 0 116 -28 q66 -40 103 -127.5t37 -206.5v-723q-3 27 -17 42.5t-28 20.5t-25.5 20t-11.5 40v6q-66 -50 -156.5 -79t-179.5 -29q-130 0 -209.5 79.5t-81.5 210.5zM129 285q0 -129 70.5 -207.5t185.5 -77.5q69 1 149.5 30.5t135.5 69.5v330q-68 54 -149 85.5t-154 31.5q-108 0 -173 -70 t-65 -192zM334 1198l180 236l150 -21l-328 -217z" />
<glyph unicode="&#xe2;" horiz-adv-x="915" d="M43 270q-2 132 78 212.5t213 80.5q85 0 174.5 -31.5t161.5 -87.5v230q0 174 -13 233q-16 76 -63 107q-27 18 -60.5 20.5t-66 -10.5t-59.5 -37t-43.5 -62.5t-16.5 -82.5q0 -64 32 -107t81 -43q-88 0 -138.5 42.5t-50.5 117.5q0 84 60.5 138t163.5 54q64 0 116 -28 q66 -40 103 -127.5t37 -206.5v-723q-3 27 -17 42.5t-28 20.5t-25.5 20t-11.5 40v6q-66 -50 -156.5 -79t-179.5 -29q-130 0 -209.5 79.5t-81.5 210.5zM129 285q0 -129 70.5 -207.5t185.5 -77.5q69 1 149.5 30.5t135.5 69.5v330q-68 54 -149 85.5t-154 31.5q-108 0 -173 -70 t-65 -192zM254 1190l246 293l243 -293l-2 -4l-241 176l-242 -176z" />
<glyph unicode="&#xe3;" horiz-adv-x="915" d="M43 270q-2 132 78 212.5t213 80.5q85 0 174.5 -31.5t161.5 -87.5v230q0 174 -13 233q-16 76 -63 107q-27 18 -60.5 20.5t-66 -10.5t-59.5 -37t-43.5 -62.5t-16.5 -82.5q0 -64 32 -107t81 -43q-88 0 -138.5 42.5t-50.5 117.5q0 84 60.5 138t163.5 54q64 0 116 -28 q66 -40 103 -127.5t37 -206.5v-723q-3 27 -17 42.5t-28 20.5t-25.5 20t-11.5 40v6q-66 -50 -156.5 -79t-179.5 -29q-130 0 -209.5 79.5t-81.5 210.5zM129 285q0 -129 70.5 -207.5t185.5 -77.5q69 1 149.5 30.5t135.5 69.5v330q-68 54 -149 85.5t-154 31.5q-108 0 -173 -70 t-65 -192zM213 1255q65 100 109.5 139.5t105.5 39.5q27 0 53 -15.5t43 -34t40 -34t46 -15.5q51 0 96 29t74 76l6 -4q-42 -70 -67 -103.5t-57.5 -54.5t-73.5 -21q-27 0 -54.5 16.5t-46.5 37t-44.5 37t-49.5 16.5q-47 0 -86 -27.5t-88 -83.5z" />
<glyph unicode="&#xe4;" horiz-adv-x="915" d="M43 270q-2 132 78 212.5t213 80.5q85 0 174.5 -31.5t161.5 -87.5v230q0 174 -13 233q-16 76 -63 107q-27 18 -60.5 20.5t-66 -10.5t-59.5 -37t-43.5 -62.5t-16.5 -82.5q0 -64 32 -107t81 -43q-88 0 -138.5 42.5t-50.5 117.5q0 84 60.5 138t163.5 54q64 0 116 -28 q66 -40 103 -127.5t37 -206.5v-723q-3 27 -17 42.5t-28 20.5t-25.5 20t-11.5 40v6q-66 -50 -156.5 -79t-179.5 -29q-130 0 -209.5 79.5t-81.5 210.5zM129 285q0 -129 70.5 -207.5t185.5 -77.5q69 1 149.5 30.5t135.5 69.5v330q-68 54 -149 85.5t-154 31.5q-108 0 -173 -70 t-65 -192zM266 1313q0 26 20.5 45.5t49.5 19.5q25 0 45 -19.5t20 -45.5q0 -28 -20 -49t-45 -21q-29 0 -49.5 21t-20.5 49zM596 1313q0 26 20 45.5t48 19.5q26 0 46.5 -19.5t20.5 -45.5q0 -28 -20.5 -49t-46.5 -21q-28 0 -48 21t-20 49z" />
<glyph unicode="&#xe5;" horiz-adv-x="915" d="M43 270q-2 132 78 212.5t213 80.5q85 0 174.5 -31.5t161.5 -87.5v230q0 174 -13 233q-16 76 -63 107q-27 18 -60.5 20.5t-66 -10.5t-59.5 -37t-43.5 -62.5t-16.5 -82.5q0 -64 32 -107t81 -43q-88 0 -138.5 42.5t-50.5 117.5q0 84 60.5 138t163.5 54q64 0 116 -28 q66 -40 103 -127.5t37 -206.5v-723q-3 27 -17 42.5t-28 20.5t-25.5 20t-11.5 40v6q-66 -50 -156.5 -79t-179.5 -29q-130 0 -209.5 79.5t-81.5 210.5zM129 285q0 -129 70.5 -207.5t185.5 -77.5q69 1 149.5 30.5t135.5 69.5v330q-68 54 -149 85.5t-154 31.5q-108 0 -173 -70 t-65 -192zM319 1292q0 71 56 123.5t131 52.5q73 0 123.5 -48t50.5 -115q0 -70 -56 -123.5t-130 -53.5q-70 0 -122.5 49t-52.5 115zM418 1315q0 -75 24 -125.5t64 -50.5q35 0 56.5 38.5t21.5 106.5q0 77 -27 124.5t-65 47.5q-33 0 -53.5 -37t-20.5 -104z" />
<glyph unicode="&#xe6;" horiz-adv-x="1460" d="M43 270q-2 132 78 212.5t213 80.5q85 0 177.5 -33t162.5 -90q-2 25 -2 72v162q0 143 -16.5 224t-69.5 116q-27 18 -60.5 20.5t-66 -10.5t-59.5 -37t-43.5 -62.5t-16.5 -82.5q0 -64 32 -107t81 -43q-88 0 -138.5 42.5t-50.5 117.5q0 84 60 138t163 54q65 0 117 -28 q96 -59 127 -205q50 110 137.5 171.5t198.5 61.5q135 0 223.5 -89t85.5 -205q-1 -70 -40 -117.5t-99 -67t-133 -20.5t-141.5 16t-127 49t-87.5 72q-5 -57 -5 -68q0 -279 98.5 -453t256.5 -173q104 1 167.5 77t63.5 195q0 80 -28.5 129.5t-75.5 52.5q75 6 124.5 -47 t49.5 -139q0 -119 -93 -200t-229 -81q-106 0 -190 53t-137 150q-198 -198 -410 -198q-134 0 -214.5 79.5t-82.5 210.5zM129 285q0 -129 69.5 -207t182.5 -78q55 0 113 19t106 50t83 59t62 56q-53 98 -69 242q-69 55 -152 88t-157 33q-108 0 -173 -70t-65 -192zM748 698 q28 -39 81.5 -70t115.5 -48t127 -15.5t116 21t82 69t26 121.5q-8 104 -77 178t-177 74q-117 0 -197 -87.5t-97 -242.5z" />
<glyph unicode="&#xe7;" horiz-adv-x="831" d="M41 512q0 234 107 383t274 149q105 0 173.5 -56t68.5 -142q0 -71 -51 -112.5t-138 -41.5q49 0 81 44.5t32 113.5q0 85 -47.5 131.5t-132.5 46.5q-134 0 -214.5 -112.5t-80.5 -301.5q0 -278 97.5 -452t252.5 -174q104 0 170.5 77t66.5 197q0 78 -28.5 127.5t-75.5 52.5 q75 6 124.5 -47t49.5 -139q0 -115 -87 -195t-218 -86h2l-25 -110q81 -12 128.5 -59t47.5 -121q0 -81 -55 -138t-143 -57q-63 0 -103.5 30t-40.5 83q0 45 30 72t75 24q-21 -1 -32 -25t-11 -61q0 -53 23 -82t57 -31q52 0 90.5 52.5t38.5 123.5q0 83 -54.5 135t-138.5 46 l31 125q-158 26 -251 169.5t-93 360.5z" />
<glyph unicode="&#xe8;" horiz-adv-x="829" d="M41 512q0 238 109 385t286 147q130 0 221 -85.5t88 -204.5q-2 -71 -41 -119.5t-98.5 -68t-132.5 -21t-142 15.5t-127 49t-87 72q-4 -46 -4 -68q0 -279 98 -453t256 -173q104 1 167.5 77t63.5 195q0 80 -28.5 129.5t-75.5 52.5q75 6 124.5 -47t49.5 -139q0 -119 -93 -200 t-229 -81q-182 0 -293.5 149t-111.5 388zM117 698q28 -39 81.5 -70t115.5 -48t127 -15.5t116.5 21.5t82.5 69.5t26 122.5q-7 107 -80 178.5t-174 71.5q-120 0 -199 -88.5t-96 -241.5zM250 1413l129 41l201 -256l-2 -2z" />
<glyph unicode="&#xe9;" horiz-adv-x="829" d="M41 512q0 238 109 385t286 147q130 0 221 -85.5t88 -204.5q-2 -71 -41 -119.5t-98.5 -68t-132.5 -21t-142 15.5t-127 49t-87 72q-4 -46 -4 -68q0 -279 98 -453t256 -173q104 1 167.5 77t63.5 195q0 80 -28.5 129.5t-75.5 52.5q75 6 124.5 -47t49.5 -139q0 -119 -93 -200 t-229 -81q-182 0 -293.5 149t-111.5 388zM117 698q28 -39 81.5 -70t115.5 -48t127 -15.5t116.5 21.5t82.5 69.5t26 122.5q-7 107 -80 178.5t-174 71.5q-120 0 -199 -88.5t-96 -241.5zM250 1198l180 236l150 -21l-328 -217z" />
<glyph unicode="&#xea;" horiz-adv-x="829" d="M41 512q0 238 109 385t286 147q130 0 221 -85.5t88 -204.5q-2 -71 -41 -119.5t-98.5 -68t-132.5 -21t-142 15.5t-127 49t-87 72q-4 -46 -4 -68q0 -279 98 -453t256 -173q104 1 167.5 77t63.5 195q0 80 -28.5 129.5t-75.5 52.5q75 6 124.5 -47t49.5 -139q0 -119 -93 -200 t-229 -81q-182 0 -293.5 149t-111.5 388zM117 698q28 -39 81.5 -70t115.5 -48t127 -15.5t116.5 21.5t82.5 69.5t26 122.5q-7 107 -80 178.5t-174 71.5q-120 0 -199 -88.5t-96 -241.5zM170 1190l246 293l243 -293l-2 -4l-241 176l-242 -176z" />
<glyph unicode="&#xeb;" horiz-adv-x="829" d="M41 512q0 238 109 385t286 147q130 0 221 -85.5t88 -204.5q-2 -71 -41 -119.5t-98.5 -68t-132.5 -21t-142 15.5t-127 49t-87 72q-4 -46 -4 -68q0 -279 98 -453t256 -173q104 1 167.5 77t63.5 195q0 80 -28.5 129.5t-75.5 52.5q75 6 124.5 -47t49.5 -139q0 -119 -93 -200 t-229 -81q-182 0 -293.5 149t-111.5 388zM117 698q28 -39 81.5 -70t115.5 -48t127 -15.5t116.5 21.5t82.5 69.5t26 122.5q-7 107 -80 178.5t-174 71.5q-120 0 -199 -88.5t-96 -241.5zM182 1313q0 26 20.5 45.5t49.5 19.5q25 0 45 -19.5t20 -45.5q0 -28 -20 -49t-45 -21 q-29 0 -49.5 21t-20.5 49zM512 1313q0 26 20 45.5t48 19.5q26 0 46.5 -19.5t20.5 -45.5q0 -28 -20.5 -49t-46.5 -21q-28 0 -48 21t-20 49z" />
<glyph unicode="&#xec;" horiz-adv-x="405" d="M41 1044q10 -4 32 -11t34.5 -11.5t33.5 -13t34 -16t31 -19.5t29 -24.5t23 -30.5t19 -38t11.5 -45.5t4.5 -54.5v-712q0 -30 24 -43t58.5 -16.5t42.5 -8.5h-332q8 5 42.5 8.5t58.5 16.5t24 43v712q0 36 -4.5 67t-9.5 52t-18.5 41t-20 30t-27.5 24.5t-27 18t-32.5 16.5 t-30.5 15zM63 1368l130 41l200 -256l-2 -2z" />
<glyph unicode="&#xed;" horiz-adv-x="405" d="M41 1044q10 -4 32 -11t34.5 -11.5t33.5 -13t34 -16t31 -19.5t29 -24.5t23 -30.5t19 -38t11.5 -45.5t4.5 -54.5v-712q0 -30 24 -43t58.5 -16.5t42.5 -8.5h-332q8 5 42.5 8.5t58.5 16.5t24 43v712q0 36 -4.5 67t-9.5 52t-18.5 41t-20 30t-27.5 24.5t-27 18t-32.5 16.5 t-30.5 15zM63 1153l181 236l149 -21l-327 -217z" />
<glyph unicode="&#xee;" horiz-adv-x="405" d="M-16 1145l245 293l244 -293l-2 -4l-242 176l-241 -176zM41 1044q10 -4 32 -11t34.5 -11.5t33.5 -13t34 -16t31 -19.5t29 -24.5t23 -30.5t19 -38t11.5 -45.5t4.5 -54.5v-712q0 -30 24 -43t58.5 -16.5t42.5 -8.5h-332q8 5 42.5 8.5t58.5 16.5t24 43v712q0 36 -4.5 67 t-9.5 52t-18.5 41t-20 30t-27.5 24.5t-27 18t-32.5 16.5t-30.5 15z" />
<glyph unicode="&#xef;" horiz-adv-x="405" d="M-4 1268q0 26 20.5 45.5t49.5 19.5q25 0 45 -19.5t20 -45.5q0 -28 -20 -49t-45 -21q-29 0 -49.5 21t-20.5 49zM41 1044q10 -4 32 -11t34.5 -11.5t33.5 -13t34 -16t31 -19.5t29 -24.5t23 -30.5t19 -38t11.5 -45.5t4.5 -54.5v-712q0 -30 24 -43t58.5 -16.5t42.5 -8.5h-332 q8 5 42.5 8.5t58.5 16.5t24 43v712q0 36 -4.5 67t-9.5 52t-18.5 41t-20 30t-27.5 24.5t-27 18t-32.5 16.5t-30.5 15zM326 1268q0 26 19.5 45.5t47.5 19.5q27 0 47.5 -19.5t20.5 -45.5q0 -28 -21 -49t-47 -21q-27 0 -47 21t-20 49z" />
<glyph unicode="&#xf0;" horiz-adv-x="901" d="M41 512q0 -249 99 -390.5t306 -141.5q103 0 185.5 71t131 185t67 262.5t3 297.5t-70.5 296.5t-144 253.5l121 67l-14 25l-125 -74q-124 138 -268 184q-120 37 -205.5 -25t-85.5 -155q0 -57 42.5 -96.5t106.5 -50.5q-40 53 -58.5 103t-15.5 87t20 66.5t48.5 43t70.5 17 t85 -13.5q125 -42 225 -178l-129 -76l13 -23l133 76q75 -113 117.5 -261.5t52.5 -293.5q-25 125 -112.5 190.5t-203.5 65.5q-179 0 -287 -138t-108 -374zM109 426q0 273 92 427.5t231 154.5q154 0 239 -104t86 -253t-39 -297t-131.5 -251.5t-195.5 -102.5 q-133 2 -207.5 107.5t-74.5 318.5z" />
<glyph unicode="&#xf1;" horiz-adv-x="1048" d="M41 1044q7 -3 39.5 -13.5t44.5 -15.5t40.5 -18t41 -24t32.5 -31t29 -41.5t17 -52t8 -66.5q14 39 43 81.5t70.5 84.5t100 69t120.5 27q120 0 189 -97t69 -265v-723q-3 27 -17 43t-28 21t-25.5 21.5t-11.5 45.5v584q0 166 -50.5 245.5t-154.5 79.5q-55 0 -105.5 -21.5 t-85.5 -53.5t-61.5 -68.5t-39.5 -67.5t-13 -49v-671q0 -30 24 -43t58.5 -16.5t42.5 -8.5h-332q8 5 42.5 8.5t58.5 16.5t24 43v712q0 36 -4.5 67t-9.5 52t-18.5 41t-20 30t-27.5 24.5t-27 18t-32.5 16.5t-30.5 15zM238 1255q65 100 109.5 139.5t105.5 39.5q27 0 53 -15.5 t43 -34t40 -34t46 -15.5q51 0 96 29t74 76l6 -4q-61 -102 -100.5 -140.5t-98.5 -38.5q-27 0 -54.5 16.5t-46.5 37t-44 37t-49 16.5q-47 0 -86 -27.5t-88 -83.5z" />
<glyph unicode="&#xf2;" horiz-adv-x="872" d="M41 512q0 238 109 385t286 147t286 -147t109 -385t-109 -385t-286 -147t-286 147t-109 385zM113 614q0 -278 97 -447.5t255 -168.5q134 2 215.5 106.5t81.5 286.5q0 283 -97.5 460t-252.5 177q-131 0 -215 -113.5t-84 -300.5zM270 1413l129 41l201 -256l-2 -2z" />
<glyph unicode="&#xf3;" horiz-adv-x="872" d="M41 512q0 238 109 385t286 147t286 -147t109 -385t-109 -385t-286 -147t-286 147t-109 385zM113 614q0 -278 97 -447.5t255 -168.5q134 2 215.5 106.5t81.5 286.5q0 283 -97.5 460t-252.5 177q-131 0 -215 -113.5t-84 -300.5zM270 1198l181 236l149 -21l-328 -217z" />
<glyph unicode="&#xf4;" horiz-adv-x="872" d="M41 512q0 238 109 385t286 147t286 -147t109 -385t-109 -385t-286 -147t-286 147t-109 385zM113 614q0 -278 97 -447.5t255 -168.5q134 2 215.5 106.5t81.5 286.5q0 283 -97.5 460t-252.5 177q-131 0 -215 -113.5t-84 -300.5zM190 1190l246 293l244 -293l-2 -4l-242 176 l-241 -176z" />
<glyph unicode="&#xf5;" horiz-adv-x="872" d="M41 512q0 238 109 385t286 147t286 -147t109 -385t-109 -385t-286 -147t-286 147t-109 385zM113 614q0 -278 97 -447.5t255 -168.5q134 2 215.5 106.5t81.5 286.5q0 283 -97.5 460t-252.5 177q-131 0 -215 -113.5t-84 -300.5zM150 1255q65 100 109.5 139.5t105.5 39.5 q27 0 53 -15.5t43 -34t40 -34t46 -15.5q51 0 96 29t74 76l6 -4q-61 -102 -100.5 -140.5t-98.5 -38.5q-27 0 -54.5 16.5t-46.5 37t-44 37t-49 16.5q-47 0 -86 -27.5t-88 -83.5z" />
<glyph unicode="&#xf6;" horiz-adv-x="872" d="M41 512q0 238 109 385t286 147t286 -147t109 -385t-109 -385t-286 -147t-286 147t-109 385zM113 614q0 -278 97 -447.5t255 -168.5q134 2 215.5 106.5t81.5 286.5q0 283 -97.5 460t-252.5 177q-131 0 -215 -113.5t-84 -300.5zM203 1313q0 27 20 46t49 19q25 0 45.5 -19.5 t20.5 -45.5q0 -27 -20.5 -48.5t-45.5 -21.5q-29 0 -49 21t-20 49zM532 1313q0 26 20 45.5t48 19.5q27 0 47.5 -19.5t20.5 -45.5q0 -28 -21 -49t-47 -21q-28 0 -48 21t-20 49z" />
<glyph unicode="&#xf7;" horiz-adv-x="755" d="M41 674v26h674v-26h-674zM330 516q0 25 20 44.5t47 19.5q26 0 46 -19.5t20 -44.5q0 -28 -19.5 -47.5t-46.5 -19.5q-28 0 -47.5 19.5t-19.5 47.5zM330 862q0 25 20 44.5t47 19.5q26 0 46 -19.5t20 -44.5q0 -28 -19.5 -47.5t-46.5 -19.5q-28 0 -47.5 19.5t-19.5 47.5z" />
<glyph unicode="&#xf8;" horiz-adv-x="872" d="M41 512q0 238 109 385t286 147q72 0 139 -28l89 272h32l-92 -287q107 -59 167 -187.5t60 -301.5q0 -238 -109 -385t-286 -147q-77 0 -149 32l-88 -270h-33l92 287q-102 61 -159.5 187t-57.5 296zM113 614q0 -180 42.5 -318t118.5 -216l289 895q-68 53 -151 53 q-131 0 -215 -113.5t-84 -300.5zM299 57q74 -59 166 -59q134 2 215.5 106.5t81.5 286.5q0 191 -46 337.5t-128 223.5z" />
<glyph unicode="&#xf9;" horiz-adv-x="1028" d="M20 1047q10 -3 32 -10.5t34.5 -12t33.5 -13.5t34 -16t31 -19.5t28.5 -24.5t23 -30t19.5 -37.5t11.5 -45t4.5 -54.5v-434q0 -166 50.5 -245.5t154.5 -79.5q55 0 105.5 21.5t85.5 53.5t61.5 68.5t39.5 67.5t13 49v497q0 29 -3 54.5t-6.5 45t-11.5 37.5t-14 30t-18.5 24.5 t-20 19t-23 16t-23 13.5t-25.5 12.5t-25 12.5q10 -3 32 -10.5t34.5 -12t33.5 -13.5t34 -16t31 -19.5t28.5 -25t23 -30.5t19.5 -37.5t11.5 -45.5t4.5 -55v-823q-3 27 -17 43t-28 21t-25.5 21.5t-11.5 45.5v152q-14 -39 -42.5 -81.5t-70 -84.5t-100 -69t-120.5 -27 q-120 0 -189.5 97.5t-69.5 264.5v440q0 29 -3 54.5t-6.5 45t-11.5 37.5t-14 30t-18.5 24.5t-20 19t-23 16t-23 13.5t-25.5 12.5t-25 12.5zM348 1413l129 41l201 -256l-2 -2z" />
<glyph unicode="&#xfa;" horiz-adv-x="1028" d="M20 1047q10 -3 32 -10.5t34.5 -12t33.5 -13.5t34 -16t31 -19.5t28.5 -24.5t23 -30t19.5 -37.5t11.5 -45t4.5 -54.5v-434q0 -166 50.5 -245.5t154.5 -79.5q55 0 105.5 21.5t85.5 53.5t61.5 68.5t39.5 67.5t13 49v497q0 29 -3 54.5t-6.5 45t-11.5 37.5t-14 30t-18.5 24.5 t-20 19t-23 16t-23 13.5t-25.5 12.5t-25 12.5q10 -3 32 -10.5t34.5 -12t33.5 -13.5t34 -16t31 -19.5t28.5 -25t23 -30.5t19.5 -37.5t11.5 -45.5t4.5 -55v-823q-3 27 -17 43t-28 21t-25.5 21.5t-11.5 45.5v152q-14 -39 -42.5 -81.5t-70 -84.5t-100 -69t-120.5 -27 q-120 0 -189.5 97.5t-69.5 264.5v440q0 29 -3 54.5t-6.5 45t-11.5 37.5t-14 30t-18.5 24.5t-20 19t-23 16t-23 13.5t-25.5 12.5t-25 12.5zM348 1198l180 236l150 -21l-328 -217z" />
<glyph unicode="&#xfb;" horiz-adv-x="1028" d="M20 1047q10 -3 32 -10.5t34.5 -12t33.5 -13.5t34 -16t31 -19.5t28.5 -24.5t23 -30t19.5 -37.5t11.5 -45t4.5 -54.5v-434q0 -166 50.5 -245.5t154.5 -79.5q55 0 105.5 21.5t85.5 53.5t61.5 68.5t39.5 67.5t13 49v497q0 29 -3 54.5t-6.5 45t-11.5 37.5t-14 30t-18.5 24.5 t-20 19t-23 16t-23 13.5t-25.5 12.5t-25 12.5q10 -3 32 -10.5t34.5 -12t33.5 -13.5t34 -16t31 -19.5t28.5 -25t23 -30.5t19.5 -37.5t11.5 -45.5t4.5 -55v-823q-3 27 -17 43t-28 21t-25.5 21.5t-11.5 45.5v152q-14 -39 -42.5 -81.5t-70 -84.5t-100 -69t-120.5 -27 q-120 0 -189.5 97.5t-69.5 264.5v440q0 29 -3 54.5t-6.5 45t-11.5 37.5t-14 30t-18.5 24.5t-20 19t-23 16t-23 13.5t-25.5 12.5t-25 12.5zM268 1190l246 293l244 -293l-2 -4l-242 176l-242 -176z" />
<glyph unicode="&#xfc;" horiz-adv-x="1028" d="M20 1047q10 -3 32 -10.5t34.5 -12t33.5 -13.5t34 -16t31 -19.5t28.5 -24.5t23 -30t19.5 -37.5t11.5 -45t4.5 -54.5v-434q0 -166 50.5 -245.5t154.5 -79.5q55 0 105.5 21.5t85.5 53.5t61.5 68.5t39.5 67.5t13 49v497q0 29 -3 54.5t-6.5 45t-11.5 37.5t-14 30t-18.5 24.5 t-20 19t-23 16t-23 13.5t-25.5 12.5t-25 12.5q10 -3 32 -10.5t34.5 -12t33.5 -13.5t34 -16t31 -19.5t28.5 -25t23 -30.5t19.5 -37.5t11.5 -45.5t4.5 -55v-823q-3 27 -17 43t-28 21t-25.5 21.5t-11.5 45.5v152q-14 -39 -42.5 -81.5t-70 -84.5t-100 -69t-120.5 -27 q-120 0 -189.5 97.5t-69.5 264.5v440q0 29 -3 54.5t-6.5 45t-11.5 37.5t-14 30t-18.5 24.5t-20 19t-23 16t-23 13.5t-25.5 12.5t-25 12.5zM281 1313q0 27 20 46t49 19q25 0 45.5 -19.5t20.5 -45.5q0 -27 -20.5 -48.5t-45.5 -21.5q-29 0 -49 21t-20 49zM610 1313 q0 26 20 45.5t48 19.5q26 0 46.5 -19.5t20.5 -45.5q0 -28 -20.5 -49t-46.5 -21q-28 0 -48 21t-20 49z" />
<glyph unicode="&#xfd;" horiz-adv-x="964" d="M10 -354q0 78 51 125t138 47q-54 0 -83.5 -47t-29.5 -119t30.5 -112.5t84.5 -39.5q22 0 40.5 6.5t37 24.5t31.5 33t32.5 49.5t30.5 55t35.5 70t37.5 75.5q3 6 39 76t56 110l-391 958q-11 27 -39.5 39.5t-60.5 17t-40 9.5h332q-8 -4 -41 -9.5t-53 -15.5t-12 -30l354 -871 q344 720 212 867q-47 52 -155 28q532 193 37 -760q-33 -63 -90 -168q-33 -63 -45 -85l-90 -173q-18 -32 -43.5 -83t-40 -78.5t-38 -62.5t-44.5 -53t-52 -31.5t-67 -14.5q-75 -1 -119.5 43.5t-44.5 118.5zM317 1198l181 236l149 -21l-328 -217z" />
<glyph unicode="&#xfe;" horiz-adv-x="1067" d="M41 1538q6 -2 32 -10.5t37 -12.5t36 -14.5t38 -20t33 -24.5t31 -32.5t23 -39.5t17 -50t5 -60v-477q26 110 117 176t219 69q174 5 285.5 -105t111.5 -294q0 -216 -152 -361t-378 -145q-116 0 -203 41v-579q0 -28 24 -41t58.5 -17.5t42.5 -9.5h-332q8 5 42.5 8.5t58.5 16.5 t24 43v1675q0 36 -4.5 67t-9.5 52t-18.5 41t-20 30t-27.5 24.5t-27 18t-32.5 16.5t-30.5 15zM293 188q90 -41 196 -41q198 0 326.5 136.5t128.5 349.5q0 103 -33 182.5t-85.5 124t-110.5 66t-117 20.5q-56 -1 -110 -22.5t-97.5 -60.5t-70.5 -100.5t-27 -135.5v-519z" />
<glyph unicode="&#xff;" horiz-adv-x="964" d="M10 -354q0 78 51 125t138 47q-54 0 -83.5 -47t-29.5 -119t30.5 -112.5t84.5 -39.5q22 0 40.5 6.5t37 24.5t31.5 33t32.5 49.5t30.5 55t35.5 70t37.5 75.5q3 6 39 76t56 110l-391 958q-11 27 -39.5 39.5t-60.5 17t-40 9.5h332q-8 -4 -41 -9.5t-53 -15.5t-12 -30l354 -871 q344 720 212 867q-47 52 -155 28q532 193 37 -760q-33 -63 -90 -168q-33 -63 -45 -85l-90 -173q-18 -32 -43.5 -83t-40 -78.5t-38 -62.5t-44.5 -53t-52 -31.5t-67 -14.5q-75 -1 -119.5 43.5t-44.5 118.5zM250 1313q0 27 20 46t49 19q25 0 45.5 -19.5t20.5 -45.5 q0 -27 -20.5 -48.5t-45.5 -21.5q-29 0 -49 21t-20 49zM580 1313q0 26 19.5 45.5t47.5 19.5q27 0 47.5 -19.5t20.5 -45.5q0 -28 -21 -49t-47 -21q-27 0 -47 21t-20 49z" />
<glyph unicode="&#x152;" horiz-adv-x="1679" d="M41 717q0 208 63.5 370.5t182.5 254.5t276 92q134 0 219 -66t99 -172q23 120 114.5 188t229.5 70q153 1 245.5 -78.5t92.5 -210.5q0 -83 -50.5 -130.5t-138.5 -47.5q54 0 83.5 48.5t29.5 127.5q0 121 -80.5 198.5t-208.5 76.5q-132 -2 -222.5 -87t-90.5 -233v-440 q102 -1 170.5 0t153 -0.5t165.5 -5.5l-489 -4v-658h278q181 0 290.5 76.5t109.5 204.5q0 79 -29.5 127.5t-83.5 48.5q88 0 138 -47.5t50 -130.5q0 -138 -126.5 -217t-335.5 -72h-578q-245 0 -401 197t-156 520zM106 860q0 -255 68.5 -449.5t188.5 -297.5t274 -103h166v1141 q0 128 -68.5 194t-197.5 66q-201 0 -316 -152t-115 -399z" />
<glyph unicode="&#x153;" horiz-adv-x="1546" d="M41 512q0 238 109 385t286 147q125 0 219.5 -76.5t139.5 -211.5q45 135 139 211.5t219 76.5q135 0 223.5 -89t85.5 -205q-1 -70 -40 -117.5t-99 -67t-133 -20.5t-141.5 16t-127 49t-87.5 72q-5 -57 -5 -68q0 -279 98.5 -453t256.5 -173q104 1 167.5 77t63.5 195 q0 80 -28.5 129.5t-75.5 52.5q75 6 124.5 -47t49.5 -139q0 -119 -93 -200t-229 -81q-129 0 -225.5 78t-142.5 215q-45 -135 -139.5 -211.5t-219.5 -76.5q-177 0 -286 147t-109 385zM113 614q0 -278 97 -447.5t255 -168.5q134 2 215.5 106.5t81.5 286.5v43q0 68 -9 141 t-33.5 156t-62.5 147.5t-101.5 107t-143.5 42.5q-131 0 -215 -113.5t-84 -300.5zM834 698q28 -39 81.5 -70t115.5 -48t127 -15.5t116 21t82 69t26 121.5q-8 104 -77 178t-177 74q-117 0 -197 -87.5t-97 -242.5z" />
<glyph unicode="&#x178;" horiz-adv-x="1103" d="M10 1434h426q-10 -6 -56.5 -14.5t-75 -23t-15.5 -40.5l434 -879q170 324 231 477q157 392 -13 460q-78 31 -222 -1q376 139 374 -96q-2 -168 -213 -571q-32 -62 -95 -178q-40 -74 -58 -107v-393q0 -30 24 -43t58.5 -16.5t42.5 -8.5h-332q8 5 42.5 8.5t58.5 16.5t24 43 v381l-440 892q-18 37 -58 54.5t-83 24.5t-54 14zM319 1722q0 27 20.5 46.5t49.5 19.5q25 0 45.5 -20t20.5 -46q0 -27 -20.5 -48t-45.5 -21q-29 0 -49.5 20.5t-20.5 48.5zM649 1722q0 26 20 46t48 20q26 0 46.5 -20t20.5 -46q0 -28 -20.5 -48.5t-46.5 -20.5q-28 0 -48 20.5 t-20 48.5z" />
<glyph unicode="&#x2c6;" horiz-adv-x="479" d="M18 1190l246 293l244 -293l-2 -4l-242 176l-241 -176z" />
<glyph unicode="&#x2dc;" horiz-adv-x="688" d="M57 1255q65 100 109.5 139.5t105.5 39.5q35 0 66.5 -25t60 -49.5t56.5 -24.5q51 0 96 29t74 76l6 -4q-61 -102 -100.5 -140.5t-98.5 -38.5q-27 0 -54.5 16.5t-46.5 37t-44 37t-49 16.5q-47 0 -87 -27.5t-88 -83.5z" />
<glyph unicode="&#x2000;" horiz-adv-x="956" />
<glyph unicode="&#x2001;" horiz-adv-x="1913" />
<glyph unicode="&#x2002;" horiz-adv-x="956" />
<glyph unicode="&#x2003;" horiz-adv-x="1913" />
<glyph unicode="&#x2004;" horiz-adv-x="637" />
<glyph unicode="&#x2005;" horiz-adv-x="478" />
<glyph unicode="&#x2006;" horiz-adv-x="318" />
<glyph unicode="&#x2007;" horiz-adv-x="318" />
<glyph unicode="&#x2008;" horiz-adv-x="239" />
<glyph unicode="&#x2009;" horiz-adv-x="382" />
<glyph unicode="&#x200a;" horiz-adv-x="106" />
<glyph unicode="&#x2010;" horiz-adv-x="581" d="M41 541v26h500v-26h-500z" />
<glyph unicode="&#x2011;" horiz-adv-x="581" d="M41 541v26h500v-26h-500z" />
<glyph unicode="&#x2012;" horiz-adv-x="581" d="M41 541v26h500v-26h-500z" />
<glyph unicode="&#x2013;" horiz-adv-x="960" d="M41 541v26h879v-26h-879z" />
<glyph unicode="&#x2014;" horiz-adv-x="1531" d="M41 541v26h1450v-26h-1450z" />
<glyph unicode="&#x2018;" horiz-adv-x="196" d="M41 1184q0 40 36.5 141t61.5 123q-20 -35 -21.5 -76t8 -71t20 -64t10.5 -51q0 -27 -17 -42.5t-41 -15.5t-40.5 16t-16.5 40z" />
<glyph unicode="&#x2019;" horiz-adv-x="196" d="M41 1391q0 27 16.5 42t40.5 15t41 -15.5t17 -39.5q0 -40 -37 -141.5t-62 -123.5q20 35 21.5 76t-8 71.5t-19.5 64.5t-10 51z" />
<glyph unicode="&#x201a;" horiz-adv-x="196" d="M41 63q0 27 16.5 42.5t40.5 15.5q25 0 41.5 -16t16.5 -39q0 -40 -37 -141.5t-62 -123.5q20 35 21.5 76t-8 71t-19.5 64t-10 51z" />
<glyph unicode="&#x201c;" horiz-adv-x="374" d="M41 1184q0 40 36.5 141t61.5 123q-20 -35 -21.5 -76t8 -71t20 -64t10.5 -51q0 -27 -17 -42.5t-41 -15.5t-40.5 16t-16.5 40zM219 1184q0 40 36.5 141t61.5 123q-20 -35 -21.5 -76t8 -71t20 -64t10.5 -51q0 -27 -17 -42.5t-41 -15.5t-40.5 16t-16.5 40z" />
<glyph unicode="&#x201d;" horiz-adv-x="374" d="M41 1391q0 27 16.5 42t40.5 15t41 -15.5t17 -39.5q0 -40 -37 -141.5t-62 -123.5q20 35 21.5 76t-8 71.5t-19.5 64.5t-10 51zM219 1391q0 27 16.5 42t40.5 15t41 -15.5t17 -39.5q0 -40 -36.5 -141.5t-61.5 -123.5q20 35 21.5 76t-8 71.5t-20 64.5t-10.5 51z" />
<glyph unicode="&#x201e;" horiz-adv-x="374" d="M41 63q0 27 16.5 42.5t40.5 15.5t41 -15.5t17 -39.5q0 -40 -37 -141.5t-62 -123.5q20 35 21.5 76t-8 71t-19.5 64t-10 51zM219 63q0 27 16.5 42.5t40.5 15.5t41 -15.5t17 -39.5q0 -40 -36.5 -141.5t-61.5 -123.5q20 35 21.5 76t-8 71t-20 64t-10.5 51z" />
<glyph unicode="&#x2022;" horiz-adv-x="350" d="M41 594q0 51 40 89t95 38q54 0 93.5 -38t39.5 -89q0 -56 -39.5 -95.5t-93.5 -39.5q-56 0 -95.5 39t-39.5 96z" />
<glyph unicode="&#x2026;" horiz-adv-x="1232" d="M135 68q0 25 20 44t48 19q26 0 45.5 -19t19.5 -44q0 -28 -19.5 -48t-45.5 -20q-28 0 -48 20t-20 48zM602 68q0 25 20 44t48 19q26 0 45.5 -19t19.5 -44q0 -28 -19.5 -48t-45.5 -20q-28 0 -48 20t-20 48zM1038 68q0 25 20 44t48 19q26 0 45.5 -19t19.5 -44 q0 -28 -19.5 -48t-45.5 -20q-28 0 -48 20t-20 48z" />
<glyph unicode="&#x202f;" horiz-adv-x="382" />
<glyph unicode="&#x2039;" horiz-adv-x="436" d="M41 508l348 356l6 -6l-258 -350l258 -348l-6 -6z" />
<glyph unicode="&#x203a;" horiz-adv-x="436" d="M41 160l258 348l-258 350l6 6l348 -356l-348 -354z" />
<glyph unicode="&#x205f;" horiz-adv-x="478" />
<glyph unicode="&#x20ac;" horiz-adv-x="1091" d="M41 582v26h160q-4 70 -4 111v35h-156v26h158q12 311 142 492.5t341 181.5q138 0 222.5 -76.5t84.5 -201.5q0 -100 -58.5 -153.5t-170.5 -53.5q67 0 110 61t43 154q0 116 -69.5 182t-190.5 66q-183 0 -289 -153.5t-106 -418.5q0 -53 2 -80h320v-26h-320q3 -75 12 -146h308 v-26h-306q36 -277 145 -435t277 -155q126 3 203.5 92t77.5 233q0 95 -34.5 160.5t-102.5 69.5q99 7 155 -57.5t56 -170.5q0 -149 -106 -244t-271 -95q-207 0 -327 158t-144 444h-162z" />
<glyph unicode="&#x2122;" horiz-adv-x="1648" d="M41 1307q0 63 58.5 100.5t154.5 36.5l94 -2h49l95 2q96 1 154.5 -36.5t58.5 -100.5q0 -45 -30.5 -73t-80.5 -28q28 0 44.5 24.5t16.5 67.5q0 65 -46.5 100t-149.5 38l-62 2v-801q0 -17 14.5 -24.5t34.5 -9.5t25 -5h-197q5 3 25 5t34.5 9.5t14.5 24.5v801l-61 -2 q-199 -6 -199 -138q0 -41 17.5 -66.5t46.5 -25.5q-50 0 -80.5 28t-30.5 73zM731 1442h109l362 -461q74 142 281 362q-3 22 -9 38.5t-18.5 28.5t-19.5 17t-26 14.5t-24 12.5q5 -2 27 -9.5t30 -11.5l26 -13t26.5 -19t19 -24.5t15 -34.5t4.5 -44v-673q0 -17 14.5 -24.5 t34.5 -9.5t25 -5h-195q4 3 24 5t35 9.5t15 24.5v673q0 15 -4 35q-203 -218 -277 -358q55 -70 79 -142.5t17 -125.5t-39 -87t-81 -34q-45 0 -67.5 29t-20.5 78t21.5 112t55.5 133l-360 463v-250q0 -115 9.5 -209t33 -179t69 -128t109.5 -33q-39 -16 -76 -16q-31 0 -56 13 t-41 38.5t-28 56t-17.5 72.5t-9 80t-3.5 86t1 84t2 80.5t1 68.5v238q0 17 -14.5 24.5t-34.5 9.5t-25 5zM1128 736.5q0 -40.5 8.5 -72.5t26 -49t41.5 -17t41.5 15.5t24 46t2 70t-28.5 93t-65 109.5q-24 -52 -37 -103.5t-13 -92z" />
<glyph unicode="&#x25fc;" horiz-adv-x="1044" d="M0 0v1044h1044v-1044h-1044z" />
</font>
</defs>
</svg>
